<?xml version="1.0" standalone="no"?>
<!DOCTYPE svg PUBLIC "-//W3C//DTD SVG 1.1//EN" "http://www.w3.org/Graphics/SVG/1.1/DTD/svg11.dtd" >
<svg xmlns="http://www.w3.org/2000/svg" xmlns:xlink="http://www.w3.org/1999/xlink" version="1.1">
<metadata></metadata>
<defs>
<font id="cabinregular" horiz-adv-x="1261" >
<font-face units-per-em="2048" ascent="1638" descent="-410" />
<missing-glyph horiz-adv-x="460" />
<glyph horiz-adv-x="0" />
<glyph unicode="&#xd;" horiz-adv-x="460" />
<glyph unicode=" "  horiz-adv-x="460" />
<glyph unicode="&#x09;" horiz-adv-x="460" />
<glyph unicode="&#xa0;" horiz-adv-x="460" />
<glyph unicode="!" horiz-adv-x="495" d="M121 1434h254l-41 -1028v-54h-172v54zM137 0v217h221v-217h-221z" />
<glyph unicode="&#x22;" horiz-adv-x="659" d="M74 1434h205l-37 -430h-131zM381 1434h205l-37 -430h-131z" />
<glyph unicode="#" horiz-adv-x="1441" d="M68 442l82 187h235l92 235h-258l60 174h264l151 396h166l-153 -396h272l154 396h163l-151 -396h231l-59 -174h-238l-92 -235h262l-84 -187h-250l-176 -465h-166l179 465h-273l-178 -465h-164l176 465h-245zM551 629h270l92 235h-270z" />
<glyph unicode="$" horiz-adv-x="1196" d="M104 63l27 207q102 -49 231.5 -86t255.5 -37q143 0 222.5 52.5t79.5 156.5q0 78 -40 130.5t-117 88t-214 76.5q-139 41 -231.5 88t-148.5 129t-56 207q0 166 119.5 269.5t338.5 115.5l-16 269h160l-17 -269q111 -6 209.5 -32.5t171.5 -63.5l-20 -207q-115 68 -221.5 98.5 t-221.5 30.5q-133 0 -211.5 -49t-78.5 -152q0 -70 35.5 -114.5t103 -76.5t188.5 -69q242 -74 361 -175t119 -279q0 -166 -110 -267.5t-323 -126.5l15 -272h-160l14 266q-125 0 -255 28t-210 64z" />
<glyph unicode="%" horiz-adv-x="1841" d="M81 1059q0 121 43 212t120 141t177 50q154 0 247 -110.5t93 -292.5q0 -184 -91 -300t-249 -116q-157 0 -248.5 115.5t-91.5 300.5zM249 1059q0 -129 45 -198.5t127 -69.5t127 69.5t45 198.5q0 127 -46 191.5t-126 64.5q-78 0 -125 -65.5t-47 -190.5zM424 0l825 1434h172 l-823 -1434h-174zM1079 387q0 121 43 212t120 141.5t177 50.5q154 0 247 -111t93 -293q0 -184 -91 -300t-249 -116q-157 0 -248.5 116t-91.5 300zM1247 387q0 -129 45 -198.5t127 -69.5t127 69.5t45 198.5q0 127 -46 191.5t-126 64.5q-78 0 -125 -65.5t-47 -190.5z" />
<glyph unicode="&#x26;" horiz-adv-x="1251" d="M74 332q0 121 61.5 221t196.5 197q-84 102 -119 187t-35 161q0 104 49 182t132 119t184 41q168 0 253 -78t85 -205q0 -121 -88 -215t-258 -213l389 -399q39 47 56 163.5t24 225.5h165q-10 -319 -133 -514l178 -205h-188l-90 94q-94 -78 -187.5 -109.5t-218.5 -31.5 q-139 0 -243.5 50t-158.5 136t-54 193zM252 346q0 -111 71.5 -182.5t211.5 -71.5q196 0 309 123l-426 426q-76 -53 -121 -130t-45 -165zM344 1094q0 -125 113 -263q143 101 200.5 164.5t57.5 149.5q0 74 -47 113.5t-127 39.5q-82 0 -139.5 -53t-57.5 -151z" />
<glyph unicode="'" horiz-adv-x="352" d="M74 1434h205l-37 -430h-131z" />
<glyph unicode="(" horiz-adv-x="641" d="M143 629q0 285 73 502t202 405h162q-117 -195 -184.5 -415t-67.5 -492t67.5 -492.5t184.5 -415.5h-162q-129 189 -202 406t-73 502z" />
<glyph unicode=")" horiz-adv-x="641" d="M61 -279q117 195 184.5 415t67.5 493q0 272 -67.5 492t-184.5 415h162q129 -188 202 -405.5t73 -501.5q0 -285 -73 -502t-202 -406h-162z" />
<glyph unicode="*" horiz-adv-x="874" d="M70 977l282 168l-282 166l55 98l266 -182l-10 309h113l-11 -309l267 182l55 -98l-283 -166l283 -168l-55 -98l-267 182l11 -309h-113l10 309l-266 -182z" />
<glyph unicode="+" horiz-adv-x="905" d="M94 498v155h277v273h164v-273h276v-155h-276v-273h-164v273h-277z" />
<glyph unicode="," horiz-adv-x="442" d="M117 -219l73 219h-71v217h221v-197l-107 -239h-116z" />
<glyph unicode="-" horiz-adv-x="868" d="M117 549v176h635v-176h-635z" />
<glyph unicode="." horiz-adv-x="425" d="M102 0v217h222v-217h-222z" />
<glyph unicode="/" horiz-adv-x="661" d="M-20 -174l548 1608h195l-549 -1608h-194z" />
<glyph unicode="0" horiz-adv-x="1429" d="M111 729q0 219 76.5 385t214 257t313.5 91q180 0 317 -91t212 -257t75 -385q0 -221 -71.5 -393t-209 -268.5t-323.5 -96.5q-187 0 -323 96.5t-208.5 268.5t-72.5 393zM317 729q0 -279 103.5 -430.5t294.5 -151.5q190 0 293.5 152t103.5 430q0 274 -105.5 415.5 t-291.5 141.5q-178 0 -288 -143.5t-110 -413.5z" />
<glyph unicode="1" horiz-adv-x="667" d="M70 1210q86 29 171 91.5t130 132.5h133v-1434h-189v1153q-68 -55 -115.5 -82t-97.5 -43z" />
<glyph unicode="2" horiz-adv-x="1073" d="M117 2l391 594q106 160 155.5 264.5t49.5 190.5q0 106 -60.5 168.5t-163.5 62.5q-190 0 -348 -162l-24 205q78 61 178 100t215 39q190 0 294.5 -110.5t104.5 -282.5q0 -135 -52 -256t-177 -309l-217 -328h502v-176h-848z" />
<glyph unicode="3" horiz-adv-x="1107" d="M82 80l47 180q96 -55 181 -84t184 -29q131 0 207.5 66t76.5 174q0 123 -85 192.5t-253 69.5h-90v176h90q133 0 210 62.5t77 171.5q0 115 -58.5 171t-170.5 56q-82 0 -156 -30.5t-156 -86.5l-32 199q166 94 370 94q197 0 306.5 -104.5t109.5 -274.5q0 -117 -57.5 -203.5 t-161.5 -129.5q264 -87 264 -357q0 -129 -64.5 -224t-176 -146.5t-252.5 -51.5q-211 0 -410 109z" />
<glyph unicode="4" horiz-adv-x="1183" d="M41 371l762 1063h141v-897h184v-166h-184v-371h-196v371h-707zM367 537h381v534z" />
<glyph unicode="5" horiz-adv-x="1107" d="M104 80l48 180q88 -49 167.5 -74.5t174.5 -25.5q137 0 222 77.5t85 206.5q0 143 -90 222t-242 79q-129 0 -289 -40l88 729h676l-8 -185h-508l-43 -354q78 10 147 10q150 0 258.5 -59.5t166 -163.5t57.5 -238q0 -143 -66.5 -249.5t-182.5 -165t-261 -58.5 q-111 0 -216.5 29t-183.5 80z" />
<glyph unicode="6" horiz-adv-x="1163" d="M127 504q0 213 92 402.5t236.5 330.5t306.5 225l133 -125q-184 -92 -326.5 -238.5t-203.5 -324.5q115 86 284 86q123 0 220.5 -56t151.5 -155.5t54 -222.5q0 -131 -59.5 -234.5t-166 -162t-245.5 -58.5q-223 0 -350 145.5t-127 387.5zM332 418q0 -123 74.5 -201 t197.5 -78q121 0 195.5 80t74.5 201q0 117 -74.5 194.5t-195.5 77.5t-196.5 -77.5t-75.5 -196.5z" />
<glyph unicode="7" horiz-adv-x="1030" d="M82 1249v185h928l-621 -1434h-205l539 1249h-641z" />
<glyph unicode="8" horiz-adv-x="1241" d="M123 410q0 125 57.5 223t159.5 153q-72 51 -112 126t-40 163q0 100 46.5 188.5t143.5 143.5t243 55q145 0 240 -55t139 -143t44 -189q0 -92 -36.5 -165.5t-104.5 -125.5q103 -55 159 -152t56 -222q0 -129 -61.5 -228.5t-174 -155t-261.5 -55.5q-152 0 -264.5 55.5 t-173 155t-60.5 228.5zM324 410q0 -121 78.5 -192t218.5 -71q139 0 218 71t79 192q0 125 -79 203.5t-218 78.5t-218 -78.5t-79 -203.5zM383 1075q0 -90 63.5 -151.5t174.5 -61.5q109 0 169 60.5t60 152.5q0 96 -59.5 153.5t-169.5 57.5q-113 0 -175.5 -57.5t-62.5 -153.5z " />
<glyph unicode="9" horiz-adv-x="1163" d="M88 1008q0 131 59.5 234.5t166 161.5t245.5 58q223 0 350 -145.5t127 -386.5q0 -207 -89 -390.5t-229 -320.5t-296 -219l-133 125q170 88 306 226t200 306q-117 -84 -281 -84q-123 0 -220 56.5t-151.5 156t-54.5 222.5zM289 1014q0 -117 74.5 -195t195.5 -78t196.5 78 t75.5 197q0 123 -74.5 200.5t-197.5 77.5q-121 0 -195.5 -79.5t-74.5 -200.5z" />
<glyph unicode=":" horiz-adv-x="425" d="M102 0v217h222v-217h-222zM102 786v217h222v-217h-222z" />
<glyph unicode=";" horiz-adv-x="442" d="M117 -219l73 219h-71v217h221v-197l-107 -239h-116zM118 786v217h222v-217h-222z" />
<glyph unicode="&#x3c;" horiz-adv-x="854" d="M74 487v177l727 333v-176l-572 -246l572 -245v-176z" />
<glyph unicode="=" horiz-adv-x="905" d="M94 328v155h717v-155h-717zM94 651v156h717v-156h-717z" />
<glyph unicode="&#x3e;" horiz-adv-x="854" d="M53 154v176l572 245l-572 246v176l727 -333v-177z" />
<glyph unicode="?" horiz-adv-x="946" d="M123 1374q141 88 330 88q123 0 212 -49t134 -132t45 -181q0 -74 -23.5 -134.5t-52.5 -100.5t-98 -126q-84 -102 -122 -168.5t-38 -154.5v-64h-193v51q0 84 22.5 149.5t55.5 114t90 117.5q82 100 114 156.5t32 134.5q0 102 -66.5 156.5t-158.5 54.5q-133 0 -265 -78z M303 0v217h221v-217h-221z" />
<glyph unicode="@" horiz-adv-x="1486" d="M102 348q0 217 105.5 397.5t284 284t382.5 103.5q240 0 375 -139.5t135 -379.5q0 -174 -71.5 -297.5t-218.5 -123.5q-45 0 -66.5 20t-21.5 84q0 51 12 105.5t43 158.5q37 119 57 215q-45 47 -107.5 78t-140.5 31q-125 0 -246.5 -84t-198.5 -218t-77 -270q0 -98 45 -164.5 t142 -66.5q94 0 199.5 63.5t168.5 173.5q-6 -43 -6 -71q0 -61 28.5 -111.5t90.5 -50.5q49 0 119.5 33t124.5 78l6 -7q-102 -168 -277.5 -268t-378.5 -100q-235 0 -371.5 139t-136.5 387zM512 354q0 106 60.5 199.5t149.5 150t167 56.5q76 0 92 -45q-18 -106 -84 -224 t-147.5 -196t-147.5 -78q-45 0 -67.5 38t-22.5 99z" />
<glyph unicode="A" d="M14 0l514 1434h205l514 -1434h-205l-137 387h-549l-137 -387h-205zM418 563h426l-213 598z" />
<glyph unicode="B" horiz-adv-x="1222" d="M164 0v1434h452q197 0 304.5 -88.5t107.5 -262.5q0 -102 -37 -182t-108 -121q135 -32 206.5 -125.5t71.5 -244.5q0 -190 -121.5 -300t-334.5 -110h-541zM358 176h330q121 0 190.5 60.5t69.5 179.5q0 246 -260 246h-330v-486zM358 838h234q115 0 175 46t60 165t-60 165 t-175 46h-234v-422z" />
<glyph unicode="C" d="M80 717q0 223 94 392t260 261t377 92q104 0 204.5 -22.5t178.5 -61.5l-20 -180q-184 88 -365 88q-164 0 -280.5 -74.5t-176 -203.5t-59.5 -291t59.5 -291t174 -204t278.5 -75q193 0 369 86l20 -180q-178 -82 -391 -82q-209 0 -373 92.5t-257 261.5t-93 392z" />
<glyph unicode="D" horiz-adv-x="1488" d="M164 0v1434h530q209 0 371 -85t252 -248t90 -384t-90 -384t-252 -248t-371 -85h-530zM358 176h336q240 0 370 146.5t130 394.5t-130 394t-370 146h-336v-1081z" />
<glyph unicode="E" horiz-adv-x="1134" d="M164 0v1434h874v-177h-680v-419h541v-176h-541v-486h699v-176h-893z" />
<glyph unicode="F" horiz-adv-x="1071" d="M164 0v1434h874v-177h-680v-419h525v-176h-525v-662h-194z" />
<glyph unicode="G" horiz-adv-x="1376" d="M80 719q0 223 95 391t263 260t383 92q109 0 214.5 -22.5t189.5 -59.5l-19 -170q-199 76 -379 76q-178 0 -297.5 -74.5t-178 -202.5t-58.5 -292q0 -258 138 -414t407 -156q57 0 122.5 9.5t116.5 29.5v357h-225v176h420v-639q-90 -49 -216 -79t-274 -30q-198 0 -358 92.5 t-252 262.5t-92 393z" />
<glyph unicode="H" horiz-adv-x="1445" d="M164 0v1434h194v-592h729v592h195v-1434h-195v657h-729v-657h-194z" />
<glyph unicode="I" horiz-adv-x="522" d="M164 0v1434h194v-1434h-194z" />
<glyph unicode="J" horiz-adv-x="522" d="M-41 -184q111 0 158 47t47 153v1418h194v-1463q0 -168 -78.5 -245.5t-240.5 -77.5h-53z" />
<glyph unicode="K" horiz-adv-x="1159" d="M164 0v1434h194v-1434h-194zM379 760l530 674h236l-545 -670l551 -764h-242z" />
<glyph unicode="L" horiz-adv-x="1026" d="M164 0v1434h194v-1258h658v-176h-852z" />
<glyph unicode="M" horiz-adv-x="1662" d="M98 0l193 1434h166l377 -711l372 711h168l191 -1434h-205l-135 1083l-389 -743l-398 745l-135 -1085h-205z" />
<glyph unicode="N" horiz-adv-x="1441" d="M164 0v1434h211l706 -1074v1074h197v-1434h-166l-754 1133v-1133h-194z" />
<glyph unicode="O" horiz-adv-x="1576" d="M82 717q0 223 90 392t251 261t365 92q205 0 366 -92t251 -261t90 -392t-90 -392t-251 -261.5t-366 -92.5q-204 0 -365 92.5t-251 261.5t-90 392zM291 717q0 -160 56 -286t169 -198.5t272 -72.5q160 0 273 72.5t169 198.5t56 286t-56 285.5t-169 198.5t-273 73t-272.5 -73 t-168.5 -198.5t-56 -285.5z" />
<glyph unicode="P" horiz-adv-x="1171" d="M164 0v1434h473q229 0 357 -112t128 -353q0 -238 -129 -352.5t-356 -114.5h-268v-502h-205zM369 676h239q158 0 236 71.5t78 219.5q0 150 -75 221.5t-239 71.5h-239v-584z" />
<glyph unicode="Q" horiz-adv-x="1576" d="M82 717q0 223 90 392t251 261t365 92q205 0 366 -92t251 -261t90 -392q0 -152 -42 -280t-122 -222l133 -131l-110 -113l-137 133q-178 -133 -429 -133q-205 0 -365.5 92.5t-250.5 261.5t-90 392zM291 717q0 -160 56 -286t169 -198.5t272 -72.5q170 0 289 84l-174 170 l111 112l174 -170q98 145 98 361q0 160 -56 285.5t-169 198.5t-273 73t-272.5 -73t-168.5 -198.5t-56 -285.5z" />
<glyph unicode="R" horiz-adv-x="1234" d="M164 0v1434h465q233 0 364 -107.5t131 -329.5q0 -287 -250 -403l322 -594h-238l-290 559h-11h-288v-559h-205zM369 733h258q143 0 219 69.5t76 194.5t-75 194t-220 69h-258v-527z" />
<glyph unicode="S" horiz-adv-x="1196" d="M104 63l27 207q102 -49 231.5 -86t255.5 -37q143 0 222.5 52.5t79.5 156.5q0 78 -40 130.5t-117 88t-214 76.5q-139 41 -231.5 88t-148.5 129t-56 207q0 174 134 280.5t378 106.5q131 0 248.5 -28.5t205.5 -69.5l-20 -207q-115 68 -221.5 98.5t-221.5 30.5 q-133 0 -211.5 -49t-78.5 -152q0 -70 35.5 -114.5t103 -76.5t188.5 -69q242 -74 361 -175t119 -279q0 -188 -141.5 -294t-418.5 -106q-127 0 -258 28t-211 64z" />
<glyph unicode="T" horiz-adv-x="1091" d="M31 1257v177h1030v-177h-418v-1257h-194v1257h-418z" />
<glyph unicode="U" horiz-adv-x="1482" d="M147 608v826h195v-772q0 -236 84 -375.5t315 -139.5t315.5 140.5t84.5 374.5v772h194v-826q0 -303 -148.5 -470t-445.5 -167t-445.5 167t-148.5 470z" />
<glyph unicode="V" horiz-adv-x="1249" d="M8 1434h205l412 -1162l411 1162h205l-514 -1434h-205z" />
<glyph unicode="W" horiz-adv-x="1937" d="M8 1434h205l303 -1182l350 1153h205l350 -1153l303 1182h205l-405 -1434h-207l-348 1153l-348 -1153h-207z" />
<glyph unicode="X" horiz-adv-x="1214" d="M8 0l488 723l-480 711h226l366 -543l365 543h225l-477 -711l485 -723h-225l-373 555l-375 -555h-225z" />
<glyph unicode="Y" horiz-adv-x="1161" d="M-23 1434h222l381 -623l381 623h221l-504 -813v-621h-195v621z" />
<glyph unicode="Z" horiz-adv-x="1124" d="M18 0l777 1257h-684v177h999l-780 -1258h770v-176h-1082z" />
<glyph unicode="[" horiz-adv-x="669" d="M143 -276v1812h527v-139h-357v-1534h357v-139h-527z" />
<glyph unicode="\" horiz-adv-x="620" d="M-20 1434h194l508 -1608h-195z" />
<glyph unicode="]" horiz-adv-x="669" d="M0 -137h356v1534h-356v139h526v-1812h-526v139z" />
<glyph unicode="^" horiz-adv-x="1048" d="M102 905v207l422 442l422 -442v-207l-422 402z" />
<glyph unicode="_" horiz-adv-x="1159" d="M6 -74h1147v-176h-1147v176z" />
<glyph unicode="`" horiz-adv-x="956" d="M287 1329v201l383 -225v-125z" />
<glyph unicode="a" horiz-adv-x="983" d="M49 270q0 190 180.5 272.5t419.5 86.5q0 135 -52 183t-167 48q-63 0 -126.5 -19.5t-137.5 -70.5l-27 150q61 47 151.5 75.5t188.5 28.5q129 0 206 -45t113 -149.5t36 -286.5v-205q0 -82 7 -124t31.5 -64.5t75.5 -22.5h19l-29 -147h-14q-86 0 -135.5 16t-75 47t-47.5 84 q-127 -147 -308 -147q-139 0 -224 81.5t-85 208.5zM238 281q0 -78 42 -116t113 -38q74 0 142.5 37t113.5 98v240q-221 -8 -316 -58.5t-95 -162.5z" />
<glyph unicode="b" horiz-adv-x="1136" d="M123 0v1536h184v-649q55 63 138 100t173 37q136 0 239.5 -71.5t158.5 -191.5t55 -259q0 -143 -60.5 -263t-164 -189.5t-228.5 -69.5q-92 0 -178 37.5t-133 105.5l-20 -123h-164zM297 502q0 -178 85 -268.5t214 -90.5t208 103.5t79 255.5q0 156 -79 257t-208 101 q-127 0 -213 -93t-86 -265z" />
<glyph unicode="c" horiz-adv-x="929" d="M68 496q0 238 134 383t398 145q156 0 274 -59l-28 -162q-125 57 -250 57q-164 0 -252 -93t-88 -263t85 -266.5t251 -96.5q133 0 256 62l24 -148q-45 -31 -123.5 -53t-162.5 -22q-164 0 -282 67.5t-177 185t-59 263.5z" />
<glyph unicode="d" horiz-adv-x="1136" d="M66 500q0 139 56 260t160.5 192.5t239.5 71.5q90 0 170 -33t137 -100v645h185v-1536h-164l-21 123q-51 -70 -133 -106.5t-174 -36.5q-127 0 -231.5 69.5t-164.5 188t-60 262.5zM254 500q0 -152 82 -254.5t219 -102.5q74 0 141.5 38t110.5 118t43 201q0 113 -43 194.5 t-111.5 123.5t-140.5 42q-139 0 -220 -101.5t-81 -258.5z" />
<glyph unicode="e" horiz-adv-x="1048" d="M63 510q0 141 58.5 259t170 186.5t263.5 68.5q193 0 312.5 -112.5t119.5 -311.5q0 -51 -8 -98h-727q18 -195 118.5 -277t258.5 -82t289 60l24 -146q-172 -77 -332 -77h-4q-172 0 -294 70.5t-185.5 191t-63.5 268.5zM268 629h529q0 109 -61.5 170t-184.5 61 q-119 0 -186.5 -58.5t-96.5 -172.5z" />
<glyph unicode="f" horiz-adv-x="677" d="M20 860l25 144h150v237q0 137 72.5 216t209.5 79q90 0 160 -27l-29 -155q-49 18 -102 18q-127 0 -127 -143v-225h270v-144h-270v-860h-184v860h-175z" />
<glyph unicode="g" horiz-adv-x="1019" d="M53 -213q0 158 174 236q-98 49 -98 127q0 98 119 145q-84 51 -129 139t-45 199t50 200t143 140t220 51q135 0 246 -78q109 61 250 62h16l-22 -123h-47q-18 0 -53 -4t-62 -11q43 -49 65.5 -110.5t22.5 -126.5q0 -115 -50 -206t-144.5 -143.5t-221.5 -52.5q-74 0 -135 19 q-47 -16 -47 -53q0 -49 113 -66l268 -43q168 -27 254 -96.5t86 -192.5q0 -154 -132 -232.5t-364 -78.5q-213 0 -345 78t-132 221zM229 -184q0 -84 84 -124t234 -40q141 0 217 37t76 106q0 53 -46 85t-139 50l-286 50q-61 -29 -100.5 -71t-39.5 -93zM250 631 q0 -115 61.5 -183.5t175.5 -68.5q115 0 177.5 68.5t62.5 183.5q0 111 -62.5 178.5t-177.5 67.5t-176 -68t-61 -178z" />
<glyph unicode="h" horiz-adv-x="1110" d="M123 0v1536h186v-629q59 57 130 87t165 30q191 0 291 -125t100 -340v-559h-184v537q0 166 -60.5 244.5t-187.5 78.5q-78 0 -143.5 -36t-110.5 -101v-723h-186z" />
<glyph unicode="i" horiz-adv-x="434" d="M125 0v1004h184v-1004h-184zM125 1229v205h184v-205h-184z" />
<glyph unicode="j" horiz-adv-x="434" d="M-25 -354q63 6 94 23.5t43.5 58.5t12.5 122v1154h184v-1223q0 -129 -74.5 -189.5t-177.5 -76.5l-61 -11zM125 1229v205h184v-205h-184z" />
<glyph unicode="k" horiz-adv-x="917" d="M123 0v1536h184v-985l369 453h225l-399 -467l409 -537h-225l-379 510v-510h-184z" />
<glyph unicode="l" horiz-adv-x="483" d="M123 221v1315h184v-1208q0 -90 11.5 -131t44 -55.5t106.5 -14.5l-27 -147h-59q-135 0 -197.5 69.5t-62.5 171.5z" />
<glyph unicode="m" horiz-adv-x="1796" d="M125 0v1004h143l21 -107q76 68 152.5 97.5t164.5 29.5q229 0 324 -201q104 201 366 201q385 0 385 -432v-592h-184v590q0 141 -55.5 205.5t-179.5 64.5q-266 0 -267 -278v-582h-184v553q0 172 -60.5 239.5t-175.5 67.5q-90 0 -159.5 -32.5t-106.5 -98.5v-729h-184z" />
<glyph unicode="n" horiz-adv-x="1144" d="M125 0v1004h143l21 -107q80 72 160.5 99.5t171.5 27.5q409 0 409 -471v-553h-184v553q0 162 -60.5 234.5t-201.5 72.5q-90 0 -164 -32.5t-111 -98.5v-729h-184z" />
<glyph unicode="o" horiz-adv-x="1126" d="M66 502q0 147 59 266t172 187.5t266 68.5q152 0 265.5 -68.5t173 -187.5t59.5 -266t-59.5 -266t-173 -187.5t-265.5 -68.5q-153 0 -266 68.5t-172 187t-59 266.5zM254 502q0 -170 81 -264.5t228 -94.5q148 0 228.5 94.5t80.5 264.5t-80.5 264t-228.5 94q-147 0 -228 -94 t-81 -264z" />
<glyph unicode="p" horiz-adv-x="1140" d="M125 -496v1500h143l21 -140q127 160 346 160q133 0 232.5 -68.5t152.5 -187.5t53 -266q0 -150 -50 -267.5t-148.5 -186t-239.5 -68.5q-104 0 -190.5 36.5t-135.5 106.5v-619h-184zM299 502q0 -180 84 -269.5t217 -89.5t209 95.5t76 263.5t-76 263t-209 95 q-131 0 -216 -92t-85 -266z" />
<glyph unicode="q" horiz-adv-x="1140" d="M68 502q0 139 54 259t155.5 191.5t236.5 71.5q117 0 197 -39t141 -119l20 138h144v-1500h-185v617q-49 -70 -131 -105.5t-184 -35.5q-143 0 -244.5 68.5t-152.5 186t-51 267.5zM256 502q0 -168 76 -263.5t209 -95.5t217 89.5t84 269.5q0 174 -85 266t-216 92 q-133 0 -209 -95t-76 -263z" />
<glyph unicode="r" horiz-adv-x="647" d="M125 0v1004h151l23 -166q78 96 148.5 141t148.5 45q25 0 47 -6l-18 -203q-27 6 -62 6q-76 0 -143.5 -33.5t-97.5 -78.5v-709h-197z" />
<glyph unicode="s" horiz-adv-x="847" d="M66 68l22 178q41 -37 126 -70t187 -33q96 0 148.5 33t52.5 92q0 70 -57.5 106t-143.5 60q-94 25 -158.5 52.5t-110.5 85t-46 151.5q0 129 92 215t285 86q88 0 149.5 -17.5t122.5 -48.5l-22 -167q-49 41 -108.5 64.5t-137.5 23.5q-90 0 -142.5 -34t-52.5 -102 q0 -45 25 -72.5t70 -46t139 -46.5q117 -35 202 -98.5t85 -200.5q0 -123 -87.5 -211t-295.5 -88q-119 0 -208 27.5t-136 60.5z" />
<glyph unicode="t" horiz-adv-x="690" d="M37 860l16 144h156v247l184 19v-266h264v-144h-264v-528q0 -104 12.5 -143t52.5 -50.5t146 -11.5h47l-14 -147h-166q-133 0 -197.5 69.5t-64.5 169.5v641h-172z" />
<glyph unicode="u" horiz-adv-x="1073" d="M115 420v584h184v-533q0 -164 56.5 -246t176.5 -82q72 0 134.5 29t97.5 84v748h184v-1004h-164l-20 111q-49 -68 -115.5 -99.5t-163.5 -31.5q-180 0 -275 109.5t-95 330.5z" />
<glyph unicode="v" horiz-adv-x="1007" d="M18 1004h205l281 -801l278 801h207l-381 -1004h-207z" />
<glyph unicode="w" horiz-adv-x="1484" d="M25 1004h217l192 -801l213 770h191l215 -770l192 801h217l-303 -1004h-207l-209 741l-211 -741h-206z" />
<glyph unicode="x" horiz-adv-x="970" d="M23 0l350 500l-342 504h207l251 -398l232 398h215l-330 -488l342 -516h-207l-254 395l-258 -395h-206z" />
<glyph unicode="y" horiz-adv-x="1034" d="M14 1004h205l313 -746l283 746h205l-614 -1500h-205l231 541z" />
<glyph unicode="z" horiz-adv-x="964" d="M45 0l559 842h-526v162h835l-559 -842h549v-162h-858z" />
<glyph unicode="{" horiz-adv-x="630" d="M41 567v123q90 0 127 52.5t37 166.5q0 51 -8 166q-8 111 -9 154q0 141 89.5 224t273.5 83h76v-141h-56q-116 0 -174.5 -53.5t-58.5 -174.5q0 -47 8 -161q8 -111 8 -158q0 -90 -41 -141.5t-120 -77.5q80 -27 120.5 -78t40.5 -141q0 -47 -8 -158q-8 -115 -8 -162 q0 -121 58.5 -174t174.5 -53h56v-142h-76q-184 0 -273.5 83t-89.5 225q0 43 9 153q8 115 8 166q0 115 -37 167t-127 52z" />
<glyph unicode="|" horiz-adv-x="468" d="M143 -428v1964h183v-1964h-183z" />
<glyph unicode="}" horiz-adv-x="630" d="M4 -137h55q117 0 175.5 53t58.5 174q0 47 -8 162q-8 111 -9 158q0 90 41 141t121 78q-80 27 -121 78t-41 141q0 47 9 158q8 115 8 161q0 121 -58.5 174.5t-175.5 53.5h-55v141h76q184 0 273 -83t89 -224q0 -43 -8 -154q-8 -115 -8 -166q0 -114 37 -166.5t127 -52.5v-123 q-90 0 -127 -52t-37 -167q0 -51 8 -166q8 -111 8 -153q0 -141 -89 -224.5t-273 -83.5h-76v142z" />
<glyph unicode="~" horiz-adv-x="946" d="M94 610q4 125 57.5 190.5t149.5 65.5q51 0 91 -13t95 -40q41 -20 71 -31.5t60 -11.5q37 0 58.5 23.5t21.5 64.5h154q-4 -125 -57.5 -190.5t-149.5 -65.5q-49 0 -87 12.5t-91 38.5q-39 23 -70.5 34t-68.5 11t-58.5 -23.5t-21.5 -64.5h-154z" />
<glyph unicode="&#xa1;" horiz-adv-x="495" d="M121 -410l41 1028v54h172v-54l41 -1028h-254zM137 807v217h221v-217h-221z" />
<glyph unicode="&#xa2;" horiz-adv-x="929" d="M68 496q0 215 113.5 357t334.5 167l-16 270h159l-16 -268q125 -6 231 -57l-28 -162q-125 57 -250 57q-164 0 -252 -93t-88 -263t85 -266.5t251 -96.5q133 0 256 62l24 -148q-35 -25 -97 -45t-132 -28l16 -277h-159l16 279q-215 20 -331.5 162.5t-116.5 349.5z" />
<glyph unicode="&#xa3;" horiz-adv-x="1064" d="M102 0q78 176 118 316.5t61 330.5h-158v152h174l22 225q20 211 120 324.5t286 113.5q139 0 266 -71l-20 -207q-61 51 -115.5 76.5t-116.5 25.5q-100 0 -156.5 -64.5t-68.5 -181.5l-25 -241h383v-152h-399q-18 -160 -44 -263t-71 -200h643v-184h-899z" />
<glyph unicode="&#xa4;" horiz-adv-x="1425" d="M123 180l188 189q-59 68 -91 155.5t-32 188.5q0 98 32 187t91 157l-188 188l57 58l189 -189q70 57 157.5 88t186.5 31q199 0 344 -119l188 189l58 -58l-189 -188q123 -145 123 -344t-121 -346l187 -187l-58 -57l-188 188q-141 -119 -344 -118q-207 0 -344 118l-189 -188z M373 713q0 -154 89 -253.5t251 -99.5q161 0 250.5 99.5t89.5 253.5t-89.5 253t-250.5 99q-162 0 -251 -99.5t-89 -252.5z" />
<glyph unicode="&#xa5;" horiz-adv-x="1161" d="M-23 1434h222l381 -623l381 623h221l-430 -695h237v-151h-311v-135h311v-152h-311v-301h-195v301h-311v152h311v135h-311v151h238z" />
<glyph unicode="&#xa6;" horiz-adv-x="475" d="M147 406h181v-836h-181v836zM147 700v836h181v-836h-181z" />
<glyph unicode="&#xa7;" horiz-adv-x="933" d="M76 676q0 215 223 305q-70 49 -100.5 106.5t-30.5 137.5q0 137 88 224t250 87q90 0 170 -24.5t131 -57.5l-27 -129q-63 39 -131.5 63.5t-134.5 24.5q-90 0 -144.5 -46t-54.5 -114q0 -74 55.5 -117.5t170.5 -95.5q102 -45 164.5 -85t107.5 -107.5t45 -169.5 q0 -84 -48 -164t-165 -129q121 -74 121 -244q0 -127 -83 -220t-261 -93q-88 0 -170 22.5t-123 57.5l27 129q139 -84 268 -84q98 0 154.5 44t56.5 132q0 53 -31 90t-76 60.5t-131 58.5q-102 41 -166.5 77t-109.5 99.5t-45 161.5zM215 700q0 -68 40 -112.5t107.5 -74.5 t184.5 -64q74 20 117 79.5t43 135.5q0 145 -285 254q-96 -27 -151.5 -77t-55.5 -141z" />
<glyph unicode="&#xa8;" horiz-adv-x="978" d="M204 1210v164h176v-164h-176zM598 1210v164h176v-164h-176z" />
<glyph unicode="&#xa9;" horiz-adv-x="1474" d="M100 748q0 199 82 351t226.5 235t328.5 83t328.5 -83t225.5 -235.5t81 -350.5q0 -199 -81 -351.5t-226 -236.5t-328 -84q-184 0 -328.5 84t-226.5 236.5t-82 351.5zM207 748q0 -168 59.5 -299.5t179 -207t291.5 -75.5t291 75.5t178.5 207t59.5 299.5t-59.5 299 t-178.5 205.5t-291 74.5t-291.5 -74.5t-179 -206t-59.5 -298.5zM432 743q0 156 90 249t234 93q96 0 184 -38l-14 -123q-96 39 -170 39q-90 0 -138.5 -60.5t-48.5 -159.5q0 -96 48.5 -157.5t138.5 -61.5q78 0 170 41l14 -121q-78 -41 -184 -41q-144 0 -234 93.5t-90 246.5z " />
<glyph unicode="&#xaa;" horiz-adv-x="714" d="M68 1063q0 109 110.5 156t233.5 51q-2 45 -27 65.5t-82 20.5q-70 0 -170 -41l-12 123q106 47 223 47q223 0 223 -221v-164q0 -43 4 -60.5t14.5 -21.5t35.5 -4h20l-14 -125h-56q-49 0 -83.5 17.5t-53.5 45.5q-31 -31 -81 -47t-107 -16q-76 0 -127 47t-51 127zM229 1067 q0 -31 19.5 -47t54.5 -16q62 -1 111 34v129q-184 -14 -185 -100z" />
<glyph unicode="&#xab;" horiz-adv-x="1191" d="M29 582l325 422h224l-326 -422l326 -422h-224zM561 582l325 422h224l-326 -422l326 -422h-224z" />
<glyph unicode="&#xac;" horiz-adv-x="1069" d="M94 676v155h881v-522h-164v367h-717z" />
<glyph unicode="&#xad;" horiz-adv-x="909" d="M137 549v176h635v-176h-635z" />
<glyph unicode="&#xae;" horiz-adv-x="1474" d="M98 748q0 201 82 353t227.5 235t329.5 83t328.5 -83t226.5 -235.5t82 -352.5q0 -201 -82 -353.5t-226 -236.5t-329 -84q-184 0 -329.5 84t-227.5 236.5t-82 353.5zM205 748q0 -168 60.5 -300.5t180 -208t291.5 -75.5t292 75.5t179.5 208t59.5 300.5t-59.5 299 t-179.5 206.5t-292 75.5t-291.5 -75.5t-180 -207t-60.5 -298.5zM500 430v657h241q109 0 167.5 -49t58.5 -149q0 -123 -111 -184l145 -275h-135l-121 240h-118v-240h-127zM627 784h102q51 0 78 28t27 75t-27 73.5t-78 26.5h-102v-203z" />
<glyph unicode="&#xaf;" horiz-adv-x="1064" d="M205 1210v146h655v-146h-655z" />
<glyph unicode="&#xb0;" horiz-adv-x="595" d="M20 1266q0 121 75 200.5t202 79.5q129 0 203.5 -80t74.5 -200q0 -121 -74.5 -200t-203.5 -79q-127 0 -202 79t-75 200zM119 1266q0 -80 48 -138.5t130 -58.5q86 0 132 57.5t46 139.5t-46 140t-132 58q-84 0 -131 -59t-47 -139z" />
<glyph unicode="&#xb1;" horiz-adv-x="946" d="M115 123v147h716v-147h-716zM115 639v147h286v279h144v-279h286v-147h-286v-279h-144v279h-286z" />
<glyph unicode="&#xb2;" horiz-adv-x="679" d="M74 1504q45 33 108.5 55.5t126.5 22.5q113 0 183.5 -67t70.5 -171q0 -70 -23.5 -129t-97.5 -164l-84 -121h244v-139h-526l227 324q55 80 73.5 121.5t18.5 86.5q0 47 -29.5 79t-80.5 32q-55 0 -102.5 -23.5t-94.5 -64.5z" />
<glyph unicode="&#xb3;" horiz-adv-x="731" d="M82 822l39 139q53 -33 99 -49.5t99 -16.5q61 0 96.5 28t35.5 79q0 115 -138 115h-57v133h59q55 0 88 26.5t33 75.5q0 43 -30.5 69.5t-90.5 26.5q-86 0 -174 -57l-14 141q98 49 221 50q115 0 180.5 -55.5t65.5 -147.5q0 -129 -113 -189q66 -22 101.5 -72.5t35.5 -121.5 q0 -106 -78.5 -170t-201.5 -64q-141 0 -256 60z" />
<glyph unicode="&#xb4;" horiz-adv-x="956" d="M287 1180v125l383 225v-201z" />
<glyph unicode="&#xb5;" horiz-adv-x="1245" d="M164 -496v1500h182v-570q0 -293 240 -293q80 0 138 30t110 89v744h178v-656q0 -115 19.5 -168t76.5 -53h45l-33 -147h-53q-162 0 -219 149q-59 -76 -124 -114t-151 -38q-145 0 -229 78v-551h-180z" />
<glyph unicode="&#xb6;" horiz-adv-x="1273" d="M68 971q0 119 65.5 224t198.5 172t325 67h531v-138h-154v-1296h-98v1296h-207v-1296h-84v498q-193 10 -322.5 79.5t-192 174t-62.5 219.5z" />
<glyph unicode="&#xb7;" horiz-adv-x="487" d="M117 436v266h254v-266h-254z" />
<glyph unicode="&#xb8;" horiz-adv-x="786" d="M205 -424l31 100q63 -35 129 -34q45 0 71.5 20.5t26.5 56.5q0 39 -25.5 60.5t-77.5 21.5q-47 0 -94 -16l53 215h103l-35 -111h16q82 0 130.5 -44t48.5 -121q0 -88 -61.5 -137.5t-155.5 -49.5q-90 0 -160 39z" />
<glyph unicode="&#xb9;" horiz-adv-x="485" d="M66 1430q49 16 99 51t77 72h112v-762h-153v571q-55 -51 -121 -67z" />
<glyph unicode="&#xba;" horiz-adv-x="757" d="M68 1188q0 82 37.5 149.5t108.5 107.5t165 40t164.5 -40t108.5 -108.5t38 -148.5q0 -82 -38 -149.5t-108.5 -108.5t-164.5 -41t-165 41t-108.5 108.5t-37.5 149.5zM225 1188q0 -78 41 -127t113 -49t112.5 49t40.5 127t-40.5 127t-112.5 49t-113 -49t-41 -127z" />
<glyph unicode="&#xbb;" horiz-adv-x="1193" d="M84 160l326 422l-326 422h223l326 -422l-326 -422h-223zM616 160l326 422l-326 422h223l326 -422l-326 -422h-223z" />
<glyph unicode="&#xbc;" horiz-adv-x="1294" d="M62 1311q49 16 99 51t77 72h112v-762h-153v571q-55 -51 -121 -67zM123 0l825 1434h172l-823 -1434h-174zM574 162l428 600h115v-479h100v-121h-100v-162h-136v162h-407zM807 283h174v249l-57 -83z" />
<glyph unicode="&#xbd;" horiz-adv-x="1390" d="M62 1311q49 16 99 51t77 72h112v-762h-153v571q-55 -51 -121 -67zM103 0l825 1434h172l-823 -1434h-174zM801 713q45 33 108.5 55.5t126.5 22.5q113 0 183.5 -67t70.5 -171q0 -70 -23.5 -129t-97.5 -164l-84 -121h244v-139h-526l227 324q55 80 73.5 121.5t18.5 86.5 q0 47 -29.5 79t-80.5 32q-55 0 -102.5 -23.5t-94.5 -64.5z" />
<glyph unicode="&#xbe;" horiz-adv-x="1441" d="M82 702l39 140q53 -33 99 -49.5t99 -16.5q61 0 96.5 27.5t35.5 79.5q0 115 -138 114h-57v133h59q55 0 88 27t33 76q0 43 -30.5 69.5t-90.5 26.5q-86 0 -174 -57l-14 141q98 49 221 49q115 0 180.5 -55t65.5 -147q0 -129 -113 -189q66 -22 101.5 -72.5t35.5 -121.5 q0 -106 -78.5 -170t-201.5 -64q-141 0 -256 59zM271 0l825 1434h172l-823 -1434h-174zM721 162l428 600h115v-479h100v-121h-100v-162h-136v162h-407zM954 283h174v249l-57 -83z" />
<glyph unicode="&#xbf;" horiz-adv-x="802" d="M72 -76q0 74 23.5 134.5t52 100.5t98.5 126q84 102 122 168.5t38 154.5v64h192v-51q0 -84 -22.5 -149.5t-55.5 -114t-90 -117.5q-82 -100 -113.5 -156.5t-31.5 -134.5q0 -102 66.5 -156.5t158.5 -54.5q133 0 264 78l19 -166q-141 -88 -330 -88q-123 0 -212 49t-134 132 t-45 181zM391 807v217h221v-217h-221z" />
<glyph unicode="&#xc0;" d="M14 0l514 1434h205l514 -1434h-205l-137 387h-549l-137 -387h-205zM418 563h426l-213 598zM438 1683v195l383 -195v-118z" />
<glyph unicode="&#xc1;" d="M14 0l514 1434h205l514 -1434h-205l-137 387h-549l-137 -387h-205zM418 563h426l-213 598zM441 1565v118l383 195v-195z" />
<glyph unicode="&#xc2;" d="M14 0l514 1434h205l514 -1434h-205l-137 387h-549l-137 -387h-205zM371 1542v125l260 184l260 -184v-125l-260 135zM418 563h426l-213 598z" />
<glyph unicode="&#xc3;" d="M14 0l514 1434h205l514 -1434h-205l-137 387h-549l-137 -387h-205zM312 1624q0 98 38.5 151.5t110.5 53.5q33 0 70 -11.5t88 -33.5q90 -39 129 -39q33 0 51 19.5t18 54.5h133q0 -98 -38.5 -151.5t-110.5 -53.5q-33 0 -70 11t-88 34q-90 39 -129 39q-33 0 -51 -19.5 t-18 -54.5h-133zM418 563h426l-213 598z" />
<glyph unicode="&#xc4;" d="M14 0l514 1434h205l514 -1434h-205l-137 387h-549l-137 -387h-205zM346 1626v154h176v-154h-176zM418 563h426l-213 598zM740 1626v154h176v-154h-176z" />
<glyph unicode="&#xc5;" d="M14 0l514 1434h205l514 -1434h-205l-137 387h-549l-137 -387h-205zM418 563h426l-213 598zM418 1749q0 82 57.5 141.5t155.5 59.5q100 0 156.5 -59.5t56.5 -141.5q0 -84 -55.5 -142.5t-157.5 -58.5q-100 0 -156.5 58.5t-56.5 142.5zM520 1749q0 -49 33 -80t78 -31t78 31 t33 80q0 47 -33 79t-78 32t-78 -32t-33 -79z" />
<glyph unicode="&#xc6;" horiz-adv-x="1773" d="M-14 0l700 1434h989v-179h-639v-417h494v-176h-494v-486h660v-176h-893v369h-443l-184 -369h-190zM455 557h348v694z" />
<glyph unicode="&#xc7;" d="M80 717q0 223 94 392t260 261t377 92q104 0 204.5 -22.5t178.5 -61.5l-20 -180q-184 88 -365 88q-164 0 -280.5 -74.5t-176 -203.5t-59.5 -291t59.5 -291t174 -204t278.5 -75q193 0 369 86l20 -180q-163 -76 -360 -82l-27 -82h16q82 0 130 -44t48 -121q0 -88 -61 -137.5 t-156 -49.5q-90 0 -159 39l30 100q63 -35 129 -34q45 0 72 20.5t27 56.5q0 39 -26 60.5t-77 21.5q-47 0 -94 -16l47 188q-190 14 -338.5 110.5t-231.5 259.5t-83 374z" />
<glyph unicode="&#xc8;" horiz-adv-x="1134" d="M164 0v1434h874v-177h-680v-419h541v-176h-541v-486h699v-176h-893zM430 1683v195l383 -195v-118z" />
<glyph unicode="&#xc9;" horiz-adv-x="1134" d="M164 0v1434h874v-177h-680v-419h541v-176h-541v-486h699v-176h-893zM433 1565v118l383 195v-195z" />
<glyph unicode="&#xca;" horiz-adv-x="1134" d="M164 0v1434h874v-177h-680v-419h541v-176h-541v-486h699v-176h-893zM363 1542v125l260 184l260 -184v-125l-260 135z" />
<glyph unicode="&#xcb;" horiz-adv-x="1134" d="M164 0v1434h874v-177h-680v-419h541v-176h-541v-486h699v-176h-893zM338 1626v154h176v-154h-176zM732 1626v154h176v-154h-176z" />
<glyph unicode="&#xcc;" horiz-adv-x="522" d="M69 1683v195l383 -195v-118zM164 0v1434h194v-1434h-194z" />
<glyph unicode="&#xcd;" horiz-adv-x="522" d="M72 1565v118l383 195v-195zM164 0v1434h194v-1434h-194z" />
<glyph unicode="&#xce;" horiz-adv-x="522" d="M2 1542v125l260 184l260 -184v-125l-260 135zM164 0v1434h194v-1434h-194z" />
<glyph unicode="&#xcf;" horiz-adv-x="522" d="M-23 1626v154h176v-154h-176zM164 0v1434h194v-1434h-194zM371 1626v154h176v-154h-176z" />
<glyph unicode="&#xd0;" horiz-adv-x="1492" d="M37 641v172h143v621h525q207 0 366.5 -86t249.5 -248t90 -383t-90 -383t-250 -248t-366 -86h-525v641h-143zM365 178h340q242 0 369.5 144.5t127.5 394.5t-128 395t-369 145h-340v-444h272v-172h-272v-463z" />
<glyph unicode="&#xd1;" horiz-adv-x="1441" d="M164 0v1434h211l706 -1074v1074h197v-1434h-166l-754 1133v-1133h-194zM410 1624q0 98 38.5 151.5t110.5 53.5q33 0 70 -11.5t88 -33.5q90 -39 129 -39q33 0 51 19.5t18 54.5h133q0 -98 -38.5 -151.5t-110.5 -53.5q-33 0 -70 11t-88 34q-90 39 -129 39q-33 0 -51 -19.5 t-18 -54.5h-133z" />
<glyph unicode="&#xd2;" horiz-adv-x="1576" d="M82 717q0 223 90 392t251 261t365 92q205 0 366 -92t251 -261t90 -392t-90 -392t-251 -261.5t-366 -92.5q-204 0 -365 92.5t-251 261.5t-90 392zM291 717q0 -160 56 -286t169 -198.5t272 -72.5q160 0 273 72.5t169 198.5t56 286t-56 285.5t-169 198.5t-273 73t-272.5 -73 t-168.5 -198.5t-56 -285.5zM595 1683v195l383 -195v-118z" />
<glyph unicode="&#xd3;" horiz-adv-x="1576" d="M82 717q0 223 90 392t251 261t365 92q205 0 366 -92t251 -261t90 -392t-90 -392t-251 -261.5t-366 -92.5q-204 0 -365 92.5t-251 261.5t-90 392zM291 717q0 -160 56 -286t169 -198.5t272 -72.5q160 0 273 72.5t169 198.5t56 286t-56 285.5t-169 198.5t-273 73t-272.5 -73 t-168.5 -198.5t-56 -285.5zM598 1565v118l383 195v-195z" />
<glyph unicode="&#xd4;" horiz-adv-x="1576" d="M82 717q0 223 90 392t251 261t365 92q205 0 366 -92t251 -261t90 -392t-90 -392t-251 -261.5t-366 -92.5q-204 0 -365 92.5t-251 261.5t-90 392zM291 717q0 -160 56 -286t169 -198.5t272 -72.5q160 0 273 72.5t169 198.5t56 286t-56 285.5t-169 198.5t-273 73t-272.5 -73 t-168.5 -198.5t-56 -285.5zM528 1542v125l260 184l260 -184v-125l-260 135z" />
<glyph unicode="&#xd5;" horiz-adv-x="1576" d="M82 717q0 223 90 392t251 261t365 92q205 0 366 -92t251 -261t90 -392t-90 -392t-251 -261.5t-366 -92.5q-204 0 -365 92.5t-251 261.5t-90 392zM291 717q0 -160 56 -286t169 -198.5t272 -72.5q160 0 273 72.5t169 198.5t56 286t-56 285.5t-169 198.5t-273 73t-272.5 -73 t-168.5 -198.5t-56 -285.5zM469 1624q0 98 38.5 151.5t110.5 53.5q33 0 70 -11.5t88 -33.5q90 -39 129 -39q33 0 51 19.5t18 54.5h133q0 -98 -38.5 -151.5t-110.5 -53.5q-33 0 -70 11t-88 34q-90 39 -129 39q-33 0 -51 -19.5t-18 -54.5h-133z" />
<glyph unicode="&#xd6;" horiz-adv-x="1576" d="M82 717q0 223 90 392t251 261t365 92q205 0 366 -92t251 -261t90 -392t-90 -392t-251 -261.5t-366 -92.5q-204 0 -365 92.5t-251 261.5t-90 392zM291 717q0 -160 56 -286t169 -198.5t272 -72.5q160 0 273 72.5t169 198.5t56 286t-56 285.5t-169 198.5t-273 73t-272.5 -73 t-168.5 -198.5t-56 -285.5zM503 1626v154h176v-154h-176zM897 1626v154h176v-154h-176z" />
<glyph unicode="&#xd7;" horiz-adv-x="831" d="M70 326l241 249l-241 250l106 107l240 -248l239 248l107 -107l-242 -250l242 -249l-107 -107l-239 248l-240 -248z" />
<glyph unicode="&#xd8;" horiz-adv-x="1576" d="M82 717q0 223 90 392t251 261t365 92q199 0 357 -88l102 150h187l-164 -240q108 -98 166.5 -243.5t58.5 -323.5q0 -223 -90 -392t-251 -261.5t-366 -92.5q-199 0 -356 88l-102 -149h-187l164 240q-109 98 -167 243.5t-58 323.5zM291 717q0 -121 32.5 -224.5t98.5 -177.5 l614 899q-106 59 -248 60q-160 0 -272.5 -73t-168.5 -198.5t-56 -285.5zM541 219q106 -59 247 -59q160 0 273 72.5t169 198.5t56 286q0 121 -32.5 224t-98.5 177z" />
<glyph unicode="&#xd9;" horiz-adv-x="1482" d="M147 608v826h195v-772q0 -236 84 -375.5t315 -139.5t315.5 140.5t84.5 374.5v772h194v-826q0 -303 -148.5 -470t-445.5 -167t-445.5 167t-148.5 470zM548 1683v195l383 -195v-118z" />
<glyph unicode="&#xda;" horiz-adv-x="1482" d="M147 608v826h195v-772q0 -236 84 -375.5t315 -139.5t315.5 140.5t84.5 374.5v772h194v-826q0 -303 -148.5 -470t-445.5 -167t-445.5 167t-148.5 470zM551 1565v118l383 195v-195z" />
<glyph unicode="&#xdb;" horiz-adv-x="1482" d="M147 608v826h195v-772q0 -236 84 -375.5t315 -139.5t315.5 140.5t84.5 374.5v772h194v-826q0 -303 -148.5 -470t-445.5 -167t-445.5 167t-148.5 470zM481 1542v125l260 184l260 -184v-125l-260 135z" />
<glyph unicode="&#xdc;" horiz-adv-x="1482" d="M147 608v826h195v-772q0 -236 84 -375.5t315 -139.5t315.5 140.5t84.5 374.5v772h194v-826q0 -303 -148.5 -470t-445.5 -167t-445.5 167t-148.5 470zM456 1626v154h176v-154h-176zM850 1626v154h176v-154h-176z" />
<glyph unicode="&#xdd;" horiz-adv-x="1161" d="M-23 1434h222l381 -623l381 623h221l-504 -813v-621h-195v621zM390 1565v118l383 195v-195z" />
<glyph unicode="&#xde;" horiz-adv-x="1175" d="M164 0v1434h205v-318h338q213 0 316 -96t103 -266t-104 -266.5t-315 -96.5h-338v-391h-205zM369 565h323q115 0 174.5 48.5t59.5 140.5t-59.5 140t-174.5 48h-323v-377z" />
<glyph unicode="&#xdf;" horiz-adv-x="1181" d="M37 860l16 144h137v122q0 215 117 327t316 112q174 0 278.5 -84t104.5 -226q0 -88 -29 -144t-84 -118l-35 -39q-57 -61 -78.5 -94t-21.5 -69q0 -47 34.5 -81t108.5 -81q72 -47 117 -85t77.5 -97.5t32.5 -141.5q0 -162 -121.5 -248t-297.5 -86q-113 0 -213 29v143 q109 -29 215 -28q109 0 171 48t62 132q0 82 -47 131t-139 106t-138.5 106.5t-46.5 129.5q0 70 33 124t121 144q55 57 77.5 95t22.5 92q0 82 -54 130t-155 48q-123 0 -187 -70.5t-64 -200.5v-1130h-177v860h-153z" />
<glyph unicode="&#xe0;" horiz-adv-x="983" d="M49 270q0 190 180.5 272.5t419.5 86.5q0 135 -52 183t-167 48q-63 0 -126.5 -19.5t-137.5 -70.5l-27 150q61 47 151.5 75.5t188.5 28.5q129 0 206 -45t113 -149.5t36 -286.5v-205q0 -82 7 -124t31.5 -64.5t75.5 -22.5h19l-29 -147h-14q-86 0 -135.5 16t-75 47t-47.5 84 q-127 -147 -308 -147q-139 0 -224 81.5t-85 208.5zM238 281q0 -78 42 -116t113 -38q74 0 142.5 37t113.5 98v240q-221 -8 -316 -58.5t-95 -162.5zM286 1329v201l383 -225v-125z" />
<glyph unicode="&#xe1;" horiz-adv-x="983" d="M49 270q0 190 180.5 272.5t419.5 86.5q0 135 -52 183t-167 48q-63 0 -126.5 -19.5t-137.5 -70.5l-27 150q61 47 151.5 75.5t188.5 28.5q129 0 206 -45t113 -149.5t36 -286.5v-205q0 -82 7 -124t31.5 -64.5t75.5 -22.5h19l-29 -147h-14q-86 0 -135.5 16t-75 47t-47.5 84 q-127 -147 -308 -147q-139 0 -224 81.5t-85 208.5zM238 281q0 -78 42 -116t113 -38q74 0 142.5 37t113.5 98v240q-221 -8 -316 -58.5t-95 -162.5zM289 1180v125l383 225v-201z" />
<glyph unicode="&#xe2;" horiz-adv-x="983" d="M49 270q0 190 180.5 272.5t419.5 86.5q0 135 -52 183t-167 48q-63 0 -126.5 -19.5t-137.5 -70.5l-27 150q61 47 151.5 75.5t188.5 28.5q129 0 206 -45t113 -149.5t36 -286.5v-205q0 -82 7 -124t31.5 -64.5t75.5 -22.5h19l-29 -147h-14q-86 0 -135.5 16t-75 47t-47.5 84 q-127 -147 -308 -147q-139 0 -224 81.5t-85 208.5zM219 1155v125l260 225l260 -225v-125l-260 164zM238 281q0 -78 42 -116t113 -38q74 0 142.5 37t113.5 98v240q-221 -8 -316 -58.5t-95 -162.5z" />
<glyph unicode="&#xe3;" horiz-adv-x="983" d="M49 270q0 190 180.5 272.5t419.5 86.5q0 135 -52 183t-167 48q-63 0 -126.5 -19.5t-137.5 -70.5l-27 150q61 47 151.5 75.5t188.5 28.5q129 0 206 -45t113 -149.5t36 -286.5v-205q0 -82 7 -124t31.5 -64.5t75.5 -22.5h19l-29 -147h-14q-86 0 -135.5 16t-75 47t-47.5 84 q-127 -147 -308 -147q-139 0 -224 81.5t-85 208.5zM139 1204q4 111 49 169.5t127 58.5q35 0 70 -13.5t82 -38.5q47 -23 74.5 -34t54.5 -11q33 0 51 21.5t18 58.5h154q-4 -111 -49 -169t-127 -58q-35 0 -70 13t-82 38q-47 23 -74.5 34t-54.5 11q-33 0 -51 -21.5t-18 -58.5 h-154zM238 281q0 -78 42 -116t113 -38q74 0 142.5 37t113.5 98v240q-221 -8 -316 -58.5t-95 -162.5z" />
<glyph unicode="&#xe4;" horiz-adv-x="983" d="M49 270q0 190 180.5 272.5t419.5 86.5q0 135 -52 183t-167 48q-63 0 -126.5 -19.5t-137.5 -70.5l-27 150q61 47 151.5 75.5t188.5 28.5q129 0 206 -45t113 -149.5t36 -286.5v-205q0 -82 7 -124t31.5 -64.5t75.5 -22.5h19l-29 -147h-14q-86 0 -135.5 16t-75 47t-47.5 84 q-127 -147 -308 -147q-139 0 -224 81.5t-85 208.5zM194 1210v164h176v-164h-176zM238 281q0 -78 42 -116t113 -38q74 0 142.5 37t113.5 98v240q-221 -8 -316 -58.5t-95 -162.5zM588 1210v164h176v-164h-176z" />
<glyph unicode="&#xe5;" horiz-adv-x="983" d="M49 270q0 190 180.5 272.5t419.5 86.5q0 135 -52 183t-167 48q-63 0 -126.5 -19.5t-137.5 -70.5l-27 150q61 47 151.5 75.5t188.5 28.5q129 0 206 -45t113 -149.5t36 -286.5v-205q0 -82 7 -124t31.5 -64.5t75.5 -22.5h19l-29 -147h-14q-86 0 -135.5 16t-75 47t-47.5 84 q-127 -147 -308 -147q-139 0 -224 81.5t-85 208.5zM238 281q0 -78 42 -116t113 -38q74 0 142.5 37t113.5 98v240q-221 -8 -316 -58.5t-95 -162.5zM266 1368q0 84 57.5 144.5t155.5 60.5q100 0 156.5 -60.5t56.5 -144.5q0 -86 -55.5 -145.5t-157.5 -59.5q-100 0 -156.5 59.5 t-56.5 145.5zM364 1368q0 -51 34 -83t81 -32t81 32t34 83q0 49 -34 82t-81 33t-81 -33t-34 -82z" />
<glyph unicode="&#xe6;" horiz-adv-x="1597" d="M49 270q0 193 176 272t428 87q-4 119 -55 175t-168 56q-63 0 -126.5 -19.5t-137.5 -70.5l-27 150q61 47 151.5 75.5t188.5 28.5q119 0 194 -39t113 -127q63 78 152.5 122t200.5 44q184 0 290.5 -119t106.5 -305q0 -51 -8 -98h-680q6 -188 103.5 -273.5t246.5 -85.5 q121 0 268 60l25 -146q-141 -78 -315 -77q-141 0 -249 52t-175 146q-63 -88 -164 -143t-209 -55q-147 0 -238.5 81.5t-91.5 208.5zM238 281q0 -78 47 -116t129 -38q86 0 157.5 39t126.5 113q-45 106 -45 223q-219 -2 -317 -55.5t-98 -165.5zM856 629h490q0 102 -57.5 166.5 t-166.5 64.5q-104 0 -173.5 -59.5t-92.5 -171.5z" />
<glyph unicode="&#xe7;" horiz-adv-x="929" d="M68 496q0 238 134 383t398 145q156 0 274 -59l-28 -162q-125 57 -250 57q-164 0 -252 -93t-88 -263t85 -266.5t251 -96.5q133 0 256 62l24 -148q-41 -30 -118.5 -51.5t-159.5 -23.5l-29 -91h17q82 0 130 -44t48 -121q0 -88 -61.5 -137.5t-155.5 -49.5q-90 0 -160 39 l31 100q63 -35 129 -34q45 0 71.5 20.5t26.5 56.5q0 39 -25.5 60.5t-76.5 21.5q-47 0 -95 -16l50 201q-205 27 -315.5 167t-110.5 343z" />
<glyph unicode="&#xe8;" horiz-adv-x="1048" d="M63 510q0 141 58.5 259t170 186.5t263.5 68.5q193 0 312.5 -112.5t119.5 -311.5q0 -51 -8 -98h-727q18 -195 118.5 -277t258.5 -82t289 60l24 -146q-174 -78 -336 -77q-172 0 -294 70.5t-185.5 191t-63.5 268.5zM268 629h529q0 109 -61.5 170t-184.5 61 q-119 0 -186.5 -58.5t-96.5 -172.5zM376 1329v201l383 -225v-125z" />
<glyph unicode="&#xe9;" horiz-adv-x="1048" d="M63 510q0 141 58.5 259t170 186.5t263.5 68.5q193 0 312.5 -112.5t119.5 -311.5q0 -51 -8 -98h-727q18 -195 118.5 -277t258.5 -82t289 60l24 -146q-174 -78 -336 -77q-172 0 -294 70.5t-185.5 191t-63.5 268.5zM268 629h529q0 109 -61.5 170t-184.5 61 q-119 0 -186.5 -58.5t-96.5 -172.5zM379 1180v125l383 225v-201z" />
<glyph unicode="&#xea;" horiz-adv-x="1048" d="M63 510q0 141 58.5 259t170 186.5t263.5 68.5q193 0 312.5 -112.5t119.5 -311.5q0 -51 -8 -98h-727q18 -195 118.5 -277t258.5 -82t289 60l24 -146q-174 -78 -336 -77q-172 0 -294 70.5t-185.5 191t-63.5 268.5zM268 629h529q0 109 -61.5 170t-184.5 61 q-119 0 -186.5 -58.5t-96.5 -172.5zM309 1155v125l260 225l260 -225v-125l-260 164z" />
<glyph unicode="&#xeb;" horiz-adv-x="1048" d="M63 510q0 141 58.5 259t170 186.5t263.5 68.5q193 0 312.5 -112.5t119.5 -311.5q0 -51 -8 -98h-727q18 -195 118.5 -277t258.5 -82t289 60l24 -146q-174 -78 -336 -77q-172 0 -294 70.5t-185.5 191t-63.5 268.5zM268 629h529q0 109 -61.5 170t-184.5 61 q-119 0 -186.5 -58.5t-96.5 -172.5zM284 1210v164h176v-164h-176zM678 1210v164h176v-164h-176z" />
<glyph unicode="&#xec;" horiz-adv-x="434" d="M24 1329v201l383 -225v-125zM125 0v1004h184v-1004h-184z" />
<glyph unicode="&#xed;" horiz-adv-x="434" d="M27 1180v125l383 225v-201zM125 0v1004h184v-1004h-184z" />
<glyph unicode="&#xee;" horiz-adv-x="434" d="M-43 1155v125l260 225l260 -225v-125l-260 164zM125 0v1004h184v-1004h-184z" />
<glyph unicode="&#xef;" horiz-adv-x="434" d="M-68 1210v164h176v-164h-176zM125 0v1004h184v-1004h-184zM326 1210v164h176v-164h-176z" />
<glyph unicode="&#xf0;" horiz-adv-x="1058" d="M57 420q0 121 56.5 225.5t158 165.5t226.5 61q90 0 159.5 -30.5t108.5 -83.5q-16 115 -60 218t-114 183l-236 -137l-67 111l203 116q-92 63 -203 90l30 97q160 -14 295 -115l195 113l65 -111l-155 -90q127 -133 199.5 -322.5t72.5 -384.5q0 -168 -62.5 -292.5 t-172 -191.5t-246.5 -67t-240.5 60.5t-158 163t-54.5 221.5zM246 430q0 -121 74.5 -203t197.5 -82q119 0 192.5 79t73.5 202t-71.5 199.5t-192.5 76.5q-82 0 -144.5 -37.5t-96 -100t-33.5 -134.5z" />
<glyph unicode="&#xf1;" horiz-adv-x="1144" d="M125 0v1004h143l21 -107q80 72 160.5 99.5t171.5 27.5q409 0 409 -471v-553h-184v553q0 162 -60.5 234.5t-201.5 72.5q-90 0 -164 -32.5t-111 -98.5v-729h-184zM262 1204q4 111 49 169.5t127 58.5q35 0 70 -13.5t82 -38.5q47 -23 74.5 -34t54.5 -11q33 0 51 21.5t18 58.5 h154q-4 -111 -49 -169t-127 -58q-35 0 -70 13t-82 38q-47 23 -74.5 34t-54.5 11q-33 0 -51 -21.5t-18 -58.5h-154z" />
<glyph unicode="&#xf2;" horiz-adv-x="1126" d="M66 502q0 147 59 266t172 187.5t266 68.5q152 0 265.5 -68.5t173 -187.5t59.5 -266t-59.5 -266t-173 -187.5t-265.5 -68.5q-153 0 -266 68.5t-172 187t-59 266.5zM254 502q0 -170 81 -264.5t228 -94.5q148 0 228.5 94.5t80.5 264.5t-80.5 264t-228.5 94q-147 0 -228 -94 t-81 -264zM370 1329v201l383 -225v-125z" />
<glyph unicode="&#xf3;" horiz-adv-x="1126" d="M66 502q0 147 59 266t172 187.5t266 68.5q152 0 265.5 -68.5t173 -187.5t59.5 -266t-59.5 -266t-173 -187.5t-265.5 -68.5q-153 0 -266 68.5t-172 187t-59 266.5zM254 502q0 -170 81 -264.5t228 -94.5q148 0 228.5 94.5t80.5 264.5t-80.5 264t-228.5 94q-147 0 -228 -94 t-81 -264zM373 1180v125l383 225v-201z" />
<glyph unicode="&#xf4;" horiz-adv-x="1126" d="M66 502q0 147 59 266t172 187.5t266 68.5q152 0 265.5 -68.5t173 -187.5t59.5 -266t-59.5 -266t-173 -187.5t-265.5 -68.5q-153 0 -266 68.5t-172 187t-59 266.5zM254 502q0 -170 81 -264.5t228 -94.5q148 0 228.5 94.5t80.5 264.5t-80.5 264t-228.5 94q-147 0 -228 -94 t-81 -264zM303 1155v125l260 225l260 -225v-125l-260 164z" />
<glyph unicode="&#xf5;" horiz-adv-x="1126" d="M66 502q0 147 59 266t172 187.5t266 68.5q152 0 265.5 -68.5t173 -187.5t59.5 -266t-59.5 -266t-173 -187.5t-265.5 -68.5q-153 0 -266 68.5t-172 187t-59 266.5zM223 1204q4 111 49 169.5t127 58.5q35 0 70 -13.5t82 -38.5q47 -23 74.5 -34t54.5 -11q33 0 51 21.5 t18 58.5h154q-4 -111 -49 -169t-127 -58q-35 0 -70 13t-82 38q-47 23 -74.5 34t-54.5 11q-33 0 -51 -21.5t-18 -58.5h-154zM254 502q0 -170 81 -264.5t228 -94.5q148 0 228.5 94.5t80.5 264.5t-80.5 264t-228.5 94q-147 0 -228 -94t-81 -264z" />
<glyph unicode="&#xf6;" horiz-adv-x="1126" d="M66 502q0 147 59 266t172 187.5t266 68.5q152 0 265.5 -68.5t173 -187.5t59.5 -266t-59.5 -266t-173 -187.5t-265.5 -68.5q-153 0 -266 68.5t-172 187t-59 266.5zM254 502q0 -170 81 -264.5t228 -94.5q148 0 228.5 94.5t80.5 264.5t-80.5 264t-228.5 94q-147 0 -228 -94 t-81 -264zM278 1210v164h176v-164h-176zM672 1210v164h176v-164h-176z" />
<glyph unicode="&#xf7;" horiz-adv-x="987" d="M94 498v155h799v-155h-799zM391 121v205h205v-205h-205zM391 825v205h205v-205h-205z" />
<glyph unicode="&#xf8;" horiz-adv-x="1126" d="M66 502q0 147 59 266t172 187.5t266 68.5q121 0 215 -43l64 104h166l-111 -180q80 -71 122 -175.5t42 -227.5q0 -147 -59.5 -266t-173 -187.5t-265.5 -68.5q-119 0 -215 43l-63 -105h-166l110 180q-80 70 -121.5 175.5t-41.5 228.5zM254 502q0 -158 70 -252l364 588 q-57 23 -125 22q-147 0 -228 -94t-81 -264zM438 166q57 -23 125 -23q148 0 228.5 94.5t80.5 264.5q0 158 -69 252z" />
<glyph unicode="&#xf9;" horiz-adv-x="1073" d="M115 420v584h184v-533q0 -164 56.5 -246t176.5 -82q72 0 134.5 29t97.5 84v748h184v-1004h-164l-20 111q-49 -68 -115.5 -99.5t-163.5 -31.5q-180 0 -275 109.5t-95 330.5zM344 1329v201l383 -225v-125z" />
<glyph unicode="&#xfa;" horiz-adv-x="1073" d="M115 420v584h184v-533q0 -164 56.5 -246t176.5 -82q72 0 134.5 29t97.5 84v748h184v-1004h-164l-20 111q-49 -68 -115.5 -99.5t-163.5 -31.5q-180 0 -275 109.5t-95 330.5zM347 1180v125l383 225v-201z" />
<glyph unicode="&#xfb;" horiz-adv-x="1073" d="M115 420v584h184v-533q0 -164 56.5 -246t176.5 -82q72 0 134.5 29t97.5 84v748h184v-1004h-164l-20 111q-49 -68 -115.5 -99.5t-163.5 -31.5q-180 0 -275 109.5t-95 330.5zM277 1155v125l260 225l260 -225v-125l-260 164z" />
<glyph unicode="&#xfc;" horiz-adv-x="1073" d="M115 420v584h184v-533q0 -164 56.5 -246t176.5 -82q72 0 134.5 29t97.5 84v748h184v-1004h-164l-20 111q-49 -68 -115.5 -99.5t-163.5 -31.5q-180 0 -275 109.5t-95 330.5zM252 1210v164h176v-164h-176zM646 1210v164h176v-164h-176z" />
<glyph unicode="&#xfd;" horiz-adv-x="1034" d="M14 1004h205l313 -746l283 746h205l-614 -1500h-205l231 541zM328 1180v125l383 225v-201z" />
<glyph unicode="&#xfe;" horiz-adv-x="1189" d="M123 -494v2030h184v-657q137 145 344 145q144 0 251.5 -70.5t163.5 -189.5t56 -262t-55 -262t-161.5 -189.5t-254.5 -70.5q-233 0 -344 147v-621h-184zM293 502q0 -170 88 -272.5t240 -102.5q151 0 233 103.5t82 271.5q0 164 -82 261t-233 97q-152 0 -240 -95t-88 -263z " />
<glyph unicode="&#xff;" horiz-adv-x="1034" d="M14 1004h205l313 -746l283 746h205l-614 -1500h-205l231 541zM233 1210v164h176v-164h-176zM627 1210v164h176v-164h-176z" />
<glyph unicode="&#x152;" horiz-adv-x="2193" d="M82 717q0 223 87 392t241.5 261t351.5 92q154 0 288 -65.5t228 -186.5v222h821v-175h-635v-419h488v-176h-488v-486h654v-176h-840v223q-94 -121 -228.5 -186.5t-287.5 -65.5q-197 0 -351.5 92.5t-241.5 261.5t-87 392zM287 717q0 -252 125 -411t362 -159q158 0 267.5 74 t164 203t54.5 293t-54.5 293t-164 202.5t-267.5 73.5q-238 0 -362.5 -158.5t-124.5 -410.5z" />
<glyph unicode="&#x153;" horiz-adv-x="1847" d="M66 502q0 147 59 266t172 187.5t266 68.5q131 0 232.5 -56.5t165.5 -158.5q61 100 161.5 157.5t231.5 57.5q193 0 312.5 -112.5t119.5 -311.5q0 -51 -8 -98h-727q18 -195 118.5 -277t257.5 -82q158 0 289 60l25 -146q-174 -78 -336 -77q-150 0 -261.5 58t-178.5 163 q-61 -104 -164 -162.5t-238 -58.5q-154 0 -266.5 68.5t-171.5 187t-59 266.5zM254 502q0 -170 81 -264.5t228 -94.5q148 0 228.5 94.5t80.5 264.5t-80.5 264t-228.5 94q-147 0 -228 -94t-81 -264zM1067 629h528q0 109 -61 170t-184 61q-119 0 -186.5 -58.5t-96.5 -172.5z " />
<glyph unicode="&#x178;" horiz-adv-x="1161" d="M-23 1434h222l381 -623l381 623h221l-504 -813v-621h-195v621zM295 1626v154h176v-154h-176zM689 1626v154h176v-154h-176z" />
<glyph unicode="&#x2c6;" horiz-adv-x="1052" d="M266 1155v125l260 225l260 -225v-125l-260 164z" />
<glyph unicode="&#x2dc;" horiz-adv-x="1089" d="M205 1204q4 111 49 169.5t127 58.5q35 0 70 -13.5t82 -38.5q47 -23 74.5 -34t54.5 -11q33 0 51 21.5t18 58.5h154q-4 -111 -49 -169t-127 -58q-35 0 -70 13t-82 38q-47 23 -74.5 34t-54.5 11q-33 0 -51 -21.5t-18 -58.5h-154z" />
<glyph unicode="&#x2000;" horiz-adv-x="975" />
<glyph unicode="&#x2001;" horiz-adv-x="1950" />
<glyph unicode="&#x2002;" horiz-adv-x="975" />
<glyph unicode="&#x2003;" horiz-adv-x="1950" />
<glyph unicode="&#x2004;" horiz-adv-x="650" />
<glyph unicode="&#x2005;" horiz-adv-x="487" />
<glyph unicode="&#x2006;" horiz-adv-x="325" />
<glyph unicode="&#x2007;" horiz-adv-x="325" />
<glyph unicode="&#x2008;" horiz-adv-x="243" />
<glyph unicode="&#x2009;" horiz-adv-x="390" />
<glyph unicode="&#x200a;" horiz-adv-x="108" />
<glyph unicode="&#x2010;" horiz-adv-x="868" d="M117 549v176h635v-176h-635z" />
<glyph unicode="&#x2011;" horiz-adv-x="868" d="M117 549v176h635v-176h-635z" />
<glyph unicode="&#x2012;" horiz-adv-x="868" d="M117 549v176h635v-176h-635z" />
<glyph unicode="&#x2013;" horiz-adv-x="1114" d="M0 549v176h1114v-176h-1114z" />
<glyph unicode="&#x2014;" horiz-adv-x="1466" d="M0 549v176h1466v-176h-1466z" />
<glyph unicode="&#x2018;" horiz-adv-x="401" d="M117 997v197l106 240h117l-74 -220h72v-217h-221z" />
<glyph unicode="&#x2019;" horiz-adv-x="387" d="M62 998l73 219h-71v217h221v-197l-107 -239h-116z" />
<glyph unicode="&#x201a;" horiz-adv-x="387" d="M62 -219l73 219h-71v217h221v-197l-107 -239h-116z" />
<glyph unicode="&#x201c;" horiz-adv-x="729" d="M117 997v197l106 240h117l-74 -220h72v-217h-221zM444 997v197l107 240h117l-74 -220h72v-217h-222z" />
<glyph unicode="&#x201d;" horiz-adv-x="714" d="M62 998l73 219h-71v217h221v-197l-107 -239h-116zM389 998l73 219h-71v217h221v-197l-107 -239h-116z" />
<glyph unicode="&#x201e;" horiz-adv-x="714" d="M62 -219l73 219h-71v217h221v-197l-107 -239h-116zM389 -219l73 219h-71v217h221v-197l-107 -239h-116z" />
<glyph unicode="&#x2022;" horiz-adv-x="626" d="M90 569q0 92 65.5 158t157.5 66t158 -65.5t66 -158.5q0 -92 -65.5 -157.5t-158.5 -65.5q-92 0 -157.5 65.5t-65.5 157.5z" />
<glyph unicode="&#x2026;" horiz-adv-x="1236" d="M102 0v217h222v-217h-222zM508 0v217h222v-217h-222zM913 0v217h222v-217h-222z" />
<glyph unicode="&#x202f;" horiz-adv-x="390" />
<glyph unicode="&#x2039;" horiz-adv-x="659" d="M29 582l325 422h224l-326 -422l326 -422h-224z" />
<glyph unicode="&#x203a;" horiz-adv-x="661" d="M84 160l326 422l-326 422h223l326 -422l-326 -422h-223z" />
<glyph unicode="&#x205f;" horiz-adv-x="487" />
<glyph unicode="&#x20ac;" horiz-adv-x="1339" d="M-20 471v152h182q-4 61 -4 94q0 55 6 106h-184v152h215q70 227 256 357t438 130q104 0 204.5 -22.5t178.5 -61.5l-21 -180q-184 88 -364 88q-174 0 -294 -83t-177 -228h606v-152h-645q-6 -51 -6 -106q0 -47 6 -94h645v-152h-610q53 -150 174 -237t297 -87q192 0 368 86 l21 -180q-178 -82 -391 -82q-252 0 -437.5 133.5t-253.5 366.5h-210z" />
<glyph unicode="&#x2122;" horiz-adv-x="1488" d="M63 1331v103h531l-12 -103h-205v-641h-105v641h-209zM627 690l96 744h59l215 -367l213 367h60l98 -744h-111l-63 549l-193 -332h-12l-188 334l-68 -551h-106z" />
<glyph unicode="&#x25fc;" horiz-adv-x="1003" d="M0 0v1004h1004v-1004h-1004z" />
</font>
</defs>
</svg>
