<?xml version="1.0" standalone="no"?>
<!DOCTYPE svg PUBLIC "-//W3C//DTD SVG 1.1//EN" "http://www.w3.org/Graphics/SVG/1.1/DTD/svg11.dtd" >
<svg xmlns="http://www.w3.org/2000/svg" xmlns:xlink="http://www.w3.org/1999/xlink" version="1.1">
<metadata></metadata>
<defs>
<font id="neuzeit_groteskregular" horiz-adv-x="1024" >
<font-face units-per-em="2048" ascent="1366" descent="-682" />
<missing-glyph horiz-adv-x="614" />
<glyph unicode="&#xfb01;" horiz-adv-x="1042" d="M43 807v137h129v127q0 141 68.5 219t191.5 78q27 0 43 -2v-139q-88 -12 -117.5 -43t-29.5 -113v-127h147v-137h-147v-807h-156v807h-129zM707 1210q0 43 28.5 72t71.5 29q42 0 71 -30t29 -73q0 -41 -29.5 -69.5t-70.5 -28.5q-43 0 -71.5 28.5t-28.5 71.5zM729 0v944h156 v-944h-156z" />
<glyph unicode="&#xfb02;" horiz-adv-x="1042" d="M43 807v137h129v127q0 141 68.5 219t191.5 78q27 0 43 -2v-139q-88 -12 -117.5 -43t-29.5 -113v-127h147v-137h-147v-807h-156v807h-129zM729 0v1366h156v-1366h-156z" />
<glyph unicode="&#xfb03;" horiz-adv-x="1605" d="M41 807v137h129v127q0 141 68.5 219t191.5 78q27 0 43 -2v-139q-88 -12 -117.5 -43t-29.5 -113v-127h147v-137h-147v-807h-156v807h-129zM608 807v137h129v127q0 141 68.5 219t191.5 78q27 0 43 -2v-139q-88 -12 -117.5 -43t-29.5 -113v-127h147v-137h-147v-807h-156v807 h-129zM1272 1210q0 43 28.5 72t71.5 29t72 -30t29 -73q0 -41 -29.5 -69.5t-71.5 -28.5q-43 0 -71.5 28.5t-28.5 71.5zM1294 0v944h156v-944h-156z" />
<glyph unicode="&#xfb04;" horiz-adv-x="1607" d="M43 807v137h129v127q0 141 68.5 219t191.5 78q27 0 43 -2v-139q-88 -12 -117.5 -43t-29.5 -113v-127h147v-137h-147v-807h-156v807h-129zM610 807v137h129v127q0 141 68.5 219t191.5 78q27 0 43 -2v-139q-88 -12 -117.5 -43t-29.5 -113v-127h147v-137h-147v-807h-156v807 h-129zM1296 0v1366h156v-1366h-156z" />
<glyph horiz-adv-x="0" />
<glyph horiz-adv-x="682" />
<glyph unicode=" "  horiz-adv-x="614" />
<glyph unicode="&#x09;" horiz-adv-x="614" />
<glyph unicode="&#xa0;" horiz-adv-x="614" />
<glyph unicode="!" horiz-adv-x="526" d="M158 90q0 46 30 76.5t76 30.5t76.5 -31t30.5 -78q0 -44 -31 -74t-76 -30q-46 0 -76 30t-30 76zM186 330v1036h158v-1036h-158z" />
<glyph unicode="&#x22;" horiz-adv-x="690" d="M98 1366h183l-29 -547h-127zM412 1366h180l-27 -547h-127z" />
<glyph unicode="#" d="M80 489v103h233l29 192h-213v105h227l58 401h104l-55 -401h180l57 401h103l-55 -401h196v-105h-211l-26 -192h194v-103h-211l-61 -434h-103l60 434h-180l-62 -434h-106l61 434h-219zM416 588h188l29 200h-189z" />
<glyph unicode="$" d="M102 334q0 19 2 31h142q-2 -4 -2 -13q-6 -78 54.5 -139.5t156.5 -73.5v486q-81 30 -121 48.5t-80 43.5q-68 45 -106.5 116.5t-38.5 155.5q0 88 41.5 165t113.5 124q73 46 191 59v148h84v-148q158 -19 250 -110.5t94 -229.5h-146q-15 170 -198 197v-442q144 -55 213 -99 q72 -44 114.5 -123t42.5 -168q0 -90 -43.5 -168t-120.5 -128q-45 -29 -89 -43t-117 -23v-190h-84v190q-66 4 -109.5 19t-91.5 47q-152 100 -152 268zM256 997q0 -76 47.5 -127t151.5 -86v410q-96 -12 -147.5 -63.5t-51.5 -133.5zM539 139q98 8 157.5 66t59.5 149 q0 82 -52 138.5t-165 97.5v-451z" />
<glyph unicode="%" horiz-adv-x="1251" d="M98 911v209q0 74 12 118t40 73q58 61 161 61q92 0 156 -55q34 -34 44.5 -70.5t10.5 -124.5v-221q0 -112 -54 -169.5t-159 -57.5q-110 0 -166 65q-28 29 -36.5 62.5t-8.5 109.5zM125 31l936 1351l67 -45l-938 -1353zM199 930q0 -61 3 -80.5t15 -38.5q29 -43 94 -43 q72 0 97 49q16 31 16 107v211q0 72 -27 106.5t-84 34.5q-66 0 -92 -37q-15 -18 -18.5 -39t-3.5 -82v-188zM729 229v209q0 77 11 118.5t40 72.5q58 61 162 61q95 0 156 -55q35 -34 45 -69.5t10 -125.5v-221q0 -110 -54.5 -167.5t-158.5 -57.5q-109 0 -168 65q-26 29 -34.5 62 t-8.5 108zM829 248q0 -60 3.5 -79t15.5 -38q29 -43 94 -43q71 0 96 49q17 33 17 105v211q0 73 -27 107t-84 34q-66 0 -92 -37q-15 -19 -19 -40t-4 -81v-188z" />
<glyph unicode="&#x26;" horiz-adv-x="1222" d="M88 362q0 126 69.5 215.5t256.5 204.5q-76 105 -99.5 156t-23.5 111q0 109 80.5 182.5t199.5 73.5q117 0 195 -71.5t78 -178.5q0 -53 -23.5 -107.5t-64.5 -93.5q-37 -37 -138 -104l256 -353q103 103 195 201l105 -98q-51 -52 -216 -217l216 -283h-173l-137 186 q-121 -120 -207 -166.5t-184 -46.5q-162 0 -273.5 112.5t-111.5 276.5zM244 360q0 -98 69 -169.5t166 -71.5q73 0 131.5 36.5t161.5 145.5l-278 369q-110 -74 -156 -115q-44 -38 -69 -89.5t-25 -105.5zM444 1049q0 -44 15.5 -75.5t79.5 -115.5q92 58 123.5 98t31.5 97 q0 54 -33.5 86t-87.5 32q-57 0 -93 -33.5t-36 -88.5z" />
<glyph unicode="'" horiz-adv-x="380" d="M98 1366h187l-27 -547h-133z" />
<glyph unicode="(" horiz-adv-x="616" d="M88 451q0 264 93 514t263 442l99 -102q-310 -383 -310 -848q0 -224 80.5 -441t229.5 -397l-103 -98q-182 223 -267 447.5t-85 482.5z" />
<glyph unicode=")" horiz-adv-x="616" d="M72 -377q309 382 309 848q0 226 -79.5 441.5t-229.5 396.5l102 98q183 -224 267.5 -448t84.5 -482q0 -265 -92.5 -513.5t-263.5 -442.5z" />
<glyph unicode="*" horiz-adv-x="866" d="M119 1100l31 94l229 -68v236h98v-236l234 74l32 -96l-239 -78l147 -192l-76 -62l-147 195l-143 -195l-82 62l145 192z" />
<glyph unicode="+" d="M45 655v90h420v396h94v-396h420v-90h-420v-395h-94v395h-420z" />
<glyph unicode="," horiz-adv-x="473" d="M27 -291l172 498l147 -47l-207 -486z" />
<glyph unicode="-" horiz-adv-x="423" d="M0 426v141h424v-141h-424z" />
<glyph unicode="." horiz-adv-x="473" d="M129 90q0 46 30.5 76.5t76.5 30.5t76 -31t30 -78q0 -44 -31 -74t-75 -30q-46 0 -76.5 30t-30.5 76z" />
<glyph unicode="/" horiz-adv-x="808" d="M-88 -442l686 1808h133l-686 -1808h-133z" />
<glyph unicode="0" d="M106 457v450q0 133 18 206.5t64 129.5q105 127 320 127q189 0 303 -102q59 -54 83 -124.5t24 -189.5v-542q0 -115 -23 -190.5t-74 -129.5q-109 -115 -309 -115q-205 0 -315 119q-54 57 -72.5 131t-18.5 230zM268 446q0 -119 8.5 -159t42.5 -78q32 -37 84.5 -58.5 t110.5 -21.5q63 0 117.5 24.5t83.5 65.5q43 62 43 203v522q0 79 -15.5 125.5t-54.5 83.5q-70 64 -174 64q-66 0 -120 -26t-83 -73q-26 -36 -34.5 -80t-8.5 -135v-457z" />
<glyph unicode="1" d="M227 918v155l463 303v-1376h-162v1118z" />
<glyph unicode="2" d="M88 0l475 680q104 150 136 215.5t32 126.5q0 89 -63.5 146t-163.5 57q-69 0 -122.5 -30.5t-76.5 -84.5q-22 -53 -24 -141h-154q6 195 106 299t283 104q167 0 273 -94.5t106 -243.5q0 -87 -35 -171t-121 -204l-366 -509h481v-150h-766z" />
<glyph unicode="3" d="M57 305l148 27q28 -98 96 -151.5t164 -53.5q125 0 211 82.5t86 202.5q0 123 -84 200.5t-217 77.5q-85 0 -164 -47l-68 59l396 496h-478v148h775l-402 -510q179 0 292.5 -115.5t113.5 -296.5q0 -192 -129 -319.5t-324 -127.5q-161 0 -271 86.5t-145 241.5z" />
<glyph unicode="4" d="M80 307v127l704 950v-929h160v-148h-160v-307h-157v307h-547zM244 455h383v522z" />
<glyph unicode="5" d="M70 266l149 56q44 -84 68 -105q32 -32 84.5 -51t109.5 -19q123 0 206 84.5t83 210.5q0 130 -84 210.5t-219 80.5q-164 0 -303 -139v772h594v-156h-441v-366q101 39 201 39q181 0 300.5 -126.5t119.5 -318.5q0 -197 -130 -324.5t-331 -127.5q-145 0 -249.5 72.5 t-157.5 207.5z" />
<glyph unicode="6" d="M76 416q0 75 23 141t81 160l391 629h191l-350 -547q74 26 133 26q170 0 286.5 -118t116.5 -291q0 -182 -129.5 -311.5t-310.5 -129.5q-183 0 -307.5 127.5t-124.5 313.5zM238 416q0 -120 79.5 -203.5t194.5 -83.5t195.5 82t80.5 199q0 116 -79 196t-193 80 q-117 0 -197.5 -78t-80.5 -192z" />
<glyph unicode="7" d="M172 1194v152h758l-541 -1346h-176l483 1194h-524z" />
<glyph unicode="8" d="M86 375q0 169 102 274q32 34 65 53t95 39q-54 19 -82.5 37.5t-56.5 52.5q-70 86 -70 201q0 146 107 242t270 96q161 0 266 -95t105 -241q0 -121 -76 -209q-28 -31 -55.5 -48t-79.5 -36q61 -20 94 -37.5t64 -50.5q102 -102 102 -264q0 -181 -120 -297.5t-308 -116.5 q-186 0 -304 112.5t-118 287.5zM248 391q0 -109 76.5 -186.5t185.5 -77.5t185.5 77.5t76.5 186.5q0 107 -76 185.5t-182 78.5q-110 0 -188 -77t-78 -187zM295 1030q0 -88 63 -148.5t154 -60.5q88 0 154.5 62t66.5 145q0 80 -64.5 139.5t-152.5 59.5q-98 0 -159.5 -55 t-61.5 -142z" />
<glyph unicode="9" d="M76 934q0 183 128 309.5t314 126.5q184 0 307 -123.5t123 -306.5q0 -78 -21.5 -145t-72.5 -152l-393 -643h-191l344 547q-77 -27 -131 -27q-172 0 -289.5 119.5t-117.5 294.5zM238 940q0 -116 78.5 -196t193.5 -80q118 0 197 78.5t79 195.5q0 118 -77.5 199.5 t-190.5 81.5q-117 0 -198.5 -81t-81.5 -198z" />
<glyph unicode=":" horiz-adv-x="473" d="M129 90q0 46 30.5 76.5t76.5 30.5t76 -31t30 -78q0 -44 -31 -74t-75 -30q-46 0 -76.5 30t-30.5 76zM129 680q0 46 30.5 76t76.5 30t76 -30.5t30 -77.5q0 -44 -31 -74.5t-75 -30.5q-46 0 -76.5 30.5t-30.5 76.5z" />
<glyph unicode=";" horiz-adv-x="473" d="M27 -291l172 498l147 -47l-207 -486zM141 670q0 46 30.5 76t76.5 30t76 -30.5t30 -77.5q0 -44 -31 -74.5t-75 -30.5q-46 0 -76.5 30.5t-30.5 76.5z" />
<glyph unicode="&#x3c;" d="M68 614v146l886 422v-170l-704 -326l704 -326v-170z" />
<glyph unicode="=" d="M45 512v88h934v-88h-934zM45 801v88h934v-88h-934z" />
<glyph unicode="&#x3e;" d="M70 190v170l704 326l-704 328v168l886 -422v-148z" />
<glyph unicode="?" horiz-adv-x="872" d="M70 1024q2 165 94 260.5t250 95.5t261 -100t103 -254q0 -101 -47.5 -180t-157.5 -162q-83 -63 -103.5 -105t-20.5 -145q0 -57 2 -96h-154q-1 80 0 124.5t8 90t16 69t31.5 54t48 52.5t70.5 58q86 66 116.5 115.5t30.5 120.5q0 94 -57 154.5t-145 60.5q-85 0 -141 -53 t-56 -133v-27h-149zM272 90q0 46 30.5 76.5t76.5 30.5t76 -31t30 -78q0 -44 -31 -74t-75 -30q-46 0 -76.5 30t-30.5 76z" />
<glyph unicode="@" horiz-adv-x="1591" d="M141 672q0 142 55 271t148.5 222.5t222 149t269.5 55.5q167 0 310 -76.5t226.5 -207.5t83.5 -285q0 -237 -166 -398q-66 -63 -145.5 -100t-151.5 -37q-62 0 -101 28t-46 79q-65 -57 -118.5 -82t-113.5 -25q-98 0 -160.5 73t-62.5 187q0 201 121 373q63 90 147 139t175 49 q66 0 106.5 -22.5t77.5 -79.5l26 74h164l-194 -551q-35 -103 -35 -133q0 -19 12.5 -30t34.5 -11q64 0 131 45q98 63 156.5 176.5t58.5 241.5q0 133 -73 246t-198 179t-272 66q-166 0 -306 -82t-221 -223.5t-81 -308.5q0 -166 80.5 -306t219 -221t302.5 -81q117 0 229.5 44 t192.5 121q41 43 111 142h88q-65 -145 -170 -228q-94 -75 -216 -118t-243 -43q-134 0 -258.5 55.5t-215.5 148t-145.5 220t-54.5 264.5zM543 438q0 -48 27.5 -77t72.5 -29q63 0 107 47q29 31 64.5 85.5t47.5 88.5l109 303q6 18 6 43q0 56 -29 90.5t-76 34.5q-95 0 -188 -150 q-60 -93 -100.5 -219.5t-40.5 -216.5z" />
<glyph unicode="A" horiz-adv-x="1241" d="M10 0l514 1366h205l502 -1366h-193l-112 315h-613l-125 -315h-178zM365 463h507l-249 686z" />
<glyph unicode="B" horiz-adv-x="1128" d="M170 0v1366h385q209 0 322.5 -94.5t113.5 -267.5q0 -138 -78 -222q-27 -30 -55.5 -48.5t-83.5 -39.5q59 -12 91.5 -25.5t64.5 -39.5q112 -86 112 -260q0 -97 -39 -176t-108 -123q-60 -39 -136 -54.5t-204 -15.5h-385zM342 139h172q107 0 160.5 9.5t97.5 35.5 q98 55 98 195q0 123 -75 179t-238 56h-215v-475zM342 754h174q154 0 223 55q40 31 62 80t22 106q0 67 -29 120.5t-79 76.5q-37 19 -87.5 26t-144.5 7h-141v-471z" />
<glyph unicode="C" horiz-adv-x="1290" d="M90 682q0 152 49.5 283.5t135.5 225t207.5 147t260.5 53.5q188 0 342 -93q42 -27 76 -56.5t84 -84.5l-119 -110q-100 103 -184.5 144.5t-193.5 41.5q-209 0 -345.5 -156t-136.5 -395q0 -238 139 -393.5t351 -155.5q112 0 201 46t169 143l115 -115 q-103 -121 -222.5 -176.5t-277.5 -55.5q-289 0 -469 201q-86 97 -134 230t-48 276z" />
<glyph unicode="D" horiz-adv-x="1282" d="M170 0v1366h362q309 0 484.5 -176t175.5 -485q0 -173 -55.5 -314t-159.5 -233q-177 -158 -475 -158h-332zM342 147h61q172 0 263 22t165 81q185 147 185 452q0 248 -128 383.5t-362 135.5h-184v-1074z" />
<glyph unicode="E" horiz-adv-x="968" d="M154 0v1366h710v-147h-538v-457h538v-148h-538v-467h538v-147h-710z" />
<glyph unicode="F" horiz-adv-x="933" d="M170 0v1366h704v-147h-532v-457h532v-148h-532v-614h-172z" />
<glyph unicode="G" horiz-adv-x="1499" d="M90 680q0 204 86.5 366.5t240.5 253.5t347 91q155 0 286 -63t228 -185l-129 -105q-72 80 -115 109q-119 86 -270 86q-212 0 -355 -158t-143 -393q0 -152 65 -278t178.5 -198.5t250.5 -72.5q114 0 222 55t171 146q39 53 58 110t30 148h-475v147h651q2 -29 2 -77 q0 -137 -33 -239.5t-108 -197.5q-200 -250 -514 -250q-192 0 -346 90.5t-241 252t-87 362.5z" />
<glyph unicode="H" horiz-adv-x="1349" d="M170 0v1366h172v-614h666v614h172v-1366h-172v604h-666v-604h-172z" />
<glyph unicode="I" horiz-adv-x="512" d="M170 0v1366h172v-1366h-172z" />
<glyph unicode="J" horiz-adv-x="765" d="M53 -6v149q41 -4 84 -4q147 0 225 66q49 43 68 111t19 202v701h-396v147h568v-944q0 -286 -218 -385q-96 -45 -282 -45q-39 0 -68 2z" />
<glyph unicode="K" horiz-adv-x="1103" d="M170 0v1366h172v-629l530 629h207l-569 -676l569 -690h-219l-518 631v-631h-172z" />
<glyph unicode="L" horiz-adv-x="874" d="M170 0v1366h172v-1210h481v-156h-653z" />
<glyph unicode="M" horiz-adv-x="1695" d="M170 0v1366h170l506 -1024l512 1024h168v-1366h-172v999l-508 -1013l-504 1015v-1001h-172z" />
<glyph unicode="N" horiz-adv-x="1398" d="M170 0v1366h158l729 -1028v1028h172v-1366h-152l-735 1044v-1044h-172z" />
<glyph unicode="O" horiz-adv-x="1519" d="M90 676q0 151 51.5 283.5t141 227.5t215 149.5t268.5 54.5q142 0 274 -61.5t230 -174.5q83 -96 121.5 -213.5t38.5 -271.5q0 -160 -60 -298t-172 -233q-92 -79 -204.5 -121.5t-231.5 -42.5q-152 0 -293 68t-236 188q-143 181 -143 445zM266 682q0 -238 140 -393.5 t352 -155.5q103 0 199 43t165 121q60 66 95.5 168t35.5 207q0 269 -155 418q-68 66 -156.5 103.5t-179.5 37.5q-214 0 -355 -156.5t-141 -392.5z" />
<glyph unicode="P" horiz-adv-x="1087" d="M170 0v1366h365q243 0 372 -107.5t129 -310.5q0 -101 -38 -188t-107 -144q-119 -94 -338 -94h-211v-522h-172zM342 670h178q107 0 170 24q78 28 125 95.5t47 154.5q0 88 -46 154t-128 94q-79 27 -190 27h-156v-549z" />
<glyph unicode="Q" horiz-adv-x="1529" d="M94 676q0 151 51.5 284t140.5 227.5t214 149t268 54.5q188 0 341 -91.5t240 -252.5t87 -359q0 -136 -35.5 -245t-112.5 -212l152 -163l-119 -109l-145 164q-100 -77 -199 -112.5t-215 -35.5q-139 0 -273 61.5t-231 168.5q-164 182 -164 471zM270 684q0 -239 138.5 -394 t351.5 -155q90 0 158.5 26t140.5 87l-101 112l117 103l99 -107q45 82 64 156.5t19 167.5q0 238 -139.5 394.5t-351.5 156.5q-113 0 -215.5 -51t-171.5 -142q-109 -140 -109 -354z" />
<glyph unicode="R" horiz-adv-x="1146" d="M170 0v1366h373q218 0 342.5 -105.5t124.5 -291.5q0 -115 -51 -204t-146 -140q-50 -27 -104.5 -39.5t-147.5 -18.5l531 -567h-220l-530 573v-573h-172zM342 690h172q155 0 237.5 68.5t82.5 197.5q0 127 -75 195t-216 68h-201v-529z" />
<glyph unicode="S" horiz-adv-x="1003" d="M78 338v29h164q6 -117 67.5 -177.5t173.5 -60.5q116 0 189 64t73 167q0 89 -57.5 140.5t-218.5 105.5q-121 41 -175.5 68t-100.5 69q-107 96 -107 258q0 173 113.5 281.5t294.5 108.5t290.5 -106.5t114.5 -285.5h-172q-1 52 -8.5 82.5t-24.5 59.5q-29 45 -83 70.5 t-119 25.5q-101 0 -166.5 -62.5t-65.5 -160.5q0 -102 78 -158q32 -23 73 -41t146 -55q109 -38 169 -71t101 -77q93 -99 93 -241q0 -177 -119.5 -286.5t-311.5 -109.5q-256 0 -364 185q-47 78 -47 178z" />
<glyph unicode="T" horiz-adv-x="907" d="M20 1219v147h867v-147h-346v-1219h-172v1219h-349z" />
<glyph unicode="U" horiz-adv-x="1302" d="M145 557v809h172v-813q0 -130 20.5 -204t70.5 -124q43 -41 109.5 -66.5t131.5 -25.5t131.5 27.5t110.5 72.5q55 53 73.5 119.5t18.5 204.5v809h176v-809q0 -154 -27.5 -250.5t-93.5 -169.5q-69 -78 -168.5 -120t-216.5 -42q-121 0 -224.5 44.5t-172.5 127.5 q-63 72 -87 161t-24 249z" />
<glyph unicode="V" horiz-adv-x="1124" d="M10 1366h180l367 -1085l375 1085h182l-475 -1366h-168z" />
<glyph unicode="W" horiz-adv-x="1763" d="M10 1366h183l311 -1047l303 1047h162l293 -1051l313 1051h178l-418 -1366h-151l-301 1073l-303 -1073h-152z" />
<glyph unicode="X" horiz-adv-x="1130" d="M12 0l457 696l-440 670h207l333 -518l336 518h201l-438 -670l450 -696h-198l-351 545l-348 -545h-209z" />
<glyph unicode="Y" horiz-adv-x="1083" d="M-12 1366h202l353 -586l348 586h205l-465 -764v-602h-172v602z" />
<glyph unicode="Z" horiz-adv-x="1103" d="M27 0l774 1219h-688v147h970l-772 -1219h693v-147h-977z" />
<glyph unicode="[" horiz-adv-x="614" d="M158 -442v1808h329v-102h-192v-1604h192v-102h-329z" />
<glyph unicode="\" horiz-adv-x="808" d="M76 1366h133l686 -1808h-133z" />
<glyph unicode="]" horiz-adv-x="614" d="M127 -340h192v1604h-192v102h330v-1808h-330v102z" />
<glyph unicode="^" d="M61 764l355 604h192l353 -604h-160l-291 489l-289 -489h-160z" />
<glyph unicode="_" d="M0 -143h1024v-111h-1024v111z" />
<glyph unicode="`" d="M240 1352h184l168 -271h-111z" />
<glyph unicode="a" horiz-adv-x="1181" d="M80 469q0 217 126.5 357.5t321.5 140.5q107 0 189 -43.5t151 -135.5v156h156v-944h-156v182q-71 -106 -154 -155.5t-190 -49.5q-195 0 -319.5 138.5t-124.5 353.5zM244 465q0 -151 87 -251.5t216 -100.5q134 0 228.5 108t94.5 260q0 154 -89 250t-230 96 q-150 0 -229 -112q-78 -108 -78 -250z" />
<glyph unicode="b" horiz-adv-x="1173" d="M156 0v1366h155v-584q70 97 149.5 141t182.5 44q198 0 323.5 -139t125.5 -359q0 -217 -123.5 -354.5t-317.5 -137.5q-109 0 -190 44t-150 141v-162h-155zM309 471q0 -161 84.5 -259.5t222.5 -98.5q140 0 226 97t86 255t-86 260t-219 102q-135 0 -224.5 -100.5 t-89.5 -255.5z" />
<glyph unicode="c" horiz-adv-x="935" d="M80 469q0 220 132 359t339 139q199 0 344 -142l-100 -100q-107 98 -240 98q-139 0 -227 -97t-88 -251q0 -157 87.5 -255.5t225.5 -98.5q134 0 242 102l96 -106q-80 -73 -163 -106.5t-185 -33.5q-203 0 -333 138.5t-130 353.5z" />
<glyph unicode="d" horiz-adv-x="1175" d="M80 467q0 215 126 357.5t318 142.5q205 0 338 -166v565h156v-1366h-156v162q-71 -97 -151 -141t-187 -44q-195 0 -319.5 137.5t-124.5 352.5zM244 465q0 -155 84.5 -253.5t218.5 -98.5q136 0 225.5 101t89.5 255q0 159 -85 258.5t-220 99.5q-139 0 -226 -100.5 t-87 -261.5z" />
<glyph unicode="e" horiz-adv-x="1103" d="M80 469q0 218 134 358t341 140q205 0 342 -138.5t137 -345.5q0 -38 -2 -61h-786q6 -60 19 -97t42 -75q94 -129 254 -129q88 0 165 44t118 118l137 -52q-58 -118 -171 -186t-249 -68q-211 0 -346 138.5t-135 353.5zM248 537h620q-4 55 -16 90t-37 71q-44 60 -113 94.5 t-147 34.5t-145.5 -34.5t-108.5 -96.5q-37 -57 -53 -159z" />
<glyph unicode="f" horiz-adv-x="530" d="M43 807v137h129v127q0 141 68.5 219t191.5 78q27 0 43 -2v-139q-88 -12 -117.5 -43t-29.5 -113v-127h147v-137h-147v-807h-156v807h-129z" />
<glyph unicode="g" horiz-adv-x="1167" d="M70 469q0 114 39.5 217t109.5 170q114 111 299 111q107 0 185.5 -43.5t150.5 -141.5v162h156v-950q0 -118 -30 -201t-95 -145q-128 -125 -348 -125q-265 0 -418 172l106 106q58 -61 90 -82q40 -25 101 -40t121 -15q74 0 139.5 24.5t105.5 67.5q72 78 72 226v198 q-69 -104 -153.5 -153.5t-194.5 -49.5q-187 0 -311.5 140.5t-124.5 351.5zM233 475q0 -152 88.5 -253t221.5 -101q67 0 130 30.5t109 84.5q31 35 49.5 99t18.5 134q0 93 -16.5 148.5t-57.5 101.5q-43 48 -104.5 76t-124.5 28q-138 0 -226 -97t-88 -251z" />
<glyph unicode="h" horiz-adv-x="1040" d="M156 0v1366h155v-553q65 80 133 117t152 37q62 0 121.5 -23t97.5 -63q74 -74 74 -246v-635h-156v627q0 97 -45.5 148.5t-130.5 51.5q-109 0 -184 -84q-35 -40 -48.5 -81t-13.5 -109v-553h-155z" />
<glyph unicode="i" horiz-adv-x="468" d="M135 1210q0 43 29 72t72 29q42 0 71 -30t29 -73q0 -41 -29.5 -69.5t-70.5 -28.5q-43 0 -72 28.5t-29 71.5zM156 0v944h155v-944h-155z" />
<glyph unicode="j" horiz-adv-x="468" d="M-47 -317h22q82 2 131.5 61.5t49.5 157.5v1042h155v-1042q0 -97 -18.5 -160t-61.5 -109q-89 -98 -237 -98h-41v148zM135 1210q0 43 29 72t72 29q42 0 71 -30t29 -73q0 -41 -29.5 -69.5t-70.5 -28.5q-43 0 -72 28.5t-29 71.5z" />
<glyph unicode="k" horiz-adv-x="909" d="M156 0v1366h155v-836l377 414h197l-422 -461l420 -483h-195l-377 422v-422h-155z" />
<glyph unicode="l" horiz-adv-x="468" d="M156 0v1366h155v-1366h-155z" />
<glyph unicode="m" horiz-adv-x="1581" d="M156 0v944h155v-131q54 82 117.5 118t151.5 36q191 0 254 -172q53 91 123 131.5t176 40.5q164 0 239 -101q34 -45 46 -98t12 -164v-604h-156v567q0 86 -5 119t-22 62q-22 37 -65.5 58t-98.5 21q-103 0 -158 -67t-55 -193v-567h-155v565q0 125 -31 180q-42 82 -154 82 q-103 0 -161 -69.5t-58 -192.5v-565h-155z" />
<glyph unicode="n" horiz-adv-x="1042" d="M156 0v944h155v-133q61 83 127 119.5t154 36.5q131 0 219 -78q44 -43 62 -99t18 -153v-637h-156v602q0 116 -35 162q-20 29 -60 46t-87 17q-110 0 -180 -79q-34 -37 -48 -76t-14 -97v-575h-155z" />
<glyph unicode="o" horiz-adv-x="1122" d="M80 473q0 220 134 357t349 137q209 0 343 -140t134 -358q0 -136 -64 -249t-175 -178t-244 -65q-211 0 -344 139t-133 357zM240 471q0 -157 88 -253.5t233 -96.5q140 0 230 98.5t90 251.5q0 158 -87.5 255t-230.5 97q-146 0 -234.5 -96.5t-88.5 -255.5z" />
<glyph unicode="p" horiz-adv-x="1179" d="M156 -442v1386h155v-172q68 105 147 150t197 45q196 0 320.5 -136.5t124.5 -351.5q0 -222 -124 -362t-321 -140q-106 0 -206 50q-45 23 -73 47t-65 73v-589h-155zM311 457q0 -155 86 -249.5t226 -94.5q139 0 225 99.5t86 260.5q0 165 -82 256q-41 46 -100.5 72t-122.5 26 q-141 0 -229.5 -102.5t-88.5 -267.5z" />
<glyph unicode="q" horiz-adv-x="1173" d="M80 475q0 221 125 356.5t330 135.5q107 0 184.5 -44t142.5 -141v162h156v-1386h-156v600q-68 -94 -150 -137.5t-192 -43.5q-100 0 -190 42.5t-152 117.5q-98 124 -98 338zM244 469q0 -157 85 -256.5t220 -99.5q137 0 223 98t86 254q0 174 -88 268q-41 43 -100 68.5 t-117 25.5q-137 0 -223 -100t-86 -258z" />
<glyph unicode="r" horiz-adv-x="651" d="M156 0v944h155v-160q22 50 40 76.5t46 48.5q74 58 181 58h36v-158q-16 2 -43 2q-131 0 -204 -109q-31 -45 -43.5 -93.5t-12.5 -129.5v-479h-155z" />
<glyph unicode="s" horiz-adv-x="841" d="M70 268h153q8 -80 59 -122t140 -42q79 0 127.5 38.5t48.5 101.5q0 62 -47 97.5t-168 66.5q-154 41 -225.5 109t-71.5 175q0 123 91.5 199t240.5 76q151 0 237.5 -74t92.5 -207h-156v10q0 66 -49 105t-131 39q-78 0 -124 -36.5t-46 -98.5q0 -61 41.5 -93t169.5 -67 q165 -45 229 -109q76 -76 76 -184q0 -123 -92.5 -199t-243.5 -76q-161 0 -250.5 74t-101.5 217z" />
<glyph unicode="t" horiz-adv-x="530" d="M35 807v137h131v297h156v-297h143v-137h-143v-614q0 -34 15 -46t56 -12h72v-135h-146q-82 0 -117.5 34.5t-35.5 112.5v660h-131z" />
<glyph unicode="u" horiz-adv-x="993" d="M129 340v604h156v-600q0 -100 58.5 -163.5t152.5 -63.5q50 0 94 19t72 52q43 51 43 152v604h157v-604q0 -98 -21 -157.5t-73 -106.5q-110 -99 -272 -99q-164 0 -273 101q-94 91 -94 262z" />
<glyph unicode="v" horiz-adv-x="890" d="M12 944h164l266 -721l275 721h162l-357 -944h-164z" />
<glyph unicode="w" horiz-adv-x="1417" d="M12 944h160l242 -694l217 694h153l213 -694l248 694h160l-336 -944h-141l-217 717l-228 -717h-147z" />
<glyph unicode="x" horiz-adv-x="913" d="M8 944h197l252 -346l258 346h190l-356 -475l340 -469h-191l-241 342l-252 -342h-191l348 469z" />
<glyph unicode="y" horiz-adv-x="897" d="M12 944h166l254 -700l283 700h170l-563 -1399h-170l196 484z" />
<glyph unicode="z" horiz-adv-x="821" d="M45 0l492 807h-439v137h695l-486 -807h434v-137h-696z" />
<glyph unicode="{" d="M274 442v131q63 17 90 60.5t27 126.5v356q0 143 66 209q35 37 95.5 52.5t170.5 15.5h31v-152q-115 -3 -155 -41.5t-40 -146.5v-318q0 -95 -25 -145.5t-88 -85.5q63 -34 88 -87.5t25 -150.5v-307q0 -115 39.5 -155t155.5 -42v-143q-144 1 -194 10.5t-87 40.5 q-43 37 -62.5 96.5t-19.5 155.5v326q0 89 -26 132t-91 62z" />
<glyph unicode="|" d="M426 -342v1708h170v-1708h-170z" />
<glyph unicode="}" d="M270 -231q114 3 154.5 42.5t40.5 145.5v317q0 96 25 147.5t88 86.5q-63 34 -88 86t-25 149v310q0 114 -40 154.5t-155 41.5v144h29q120 0 177.5 -15.5t94.5 -56.5q62 -71 62 -234v-323q0 -89 26 -132.5t91 -62.5v-131q-63 -19 -90 -62t-27 -126v-354q0 -145 -66 -211 q-37 -38 -95 -53t-171 -15q-17 0 -31 2v150z" />
<glyph unicode="~" horiz-adv-x="1366" d="M193 1257q108 232 280 232q77 0 236 -80q86 -42 120.5 -54t67.5 -12q56 0 99 35t87 117l91 -72q-104 -231 -295 -231q-41 0 -86 16.5t-160 73.5q-109 53 -168 53q-53 0 -95.5 -35t-86.5 -114z" />
<glyph unicode="&#xa1;" horiz-adv-x="526" d="M158 860q0 44 31 74.5t75 30.5q46 0 76.5 -30.5t30.5 -76.5t-30.5 -76t-76.5 -30t-76 30.5t-30 77.5zM186 -416v1034h158v-1034h-158z" />
<glyph unicode="&#xa2;" d="M106 664q0 133 51 244t142 177q48 34 97 52t128 28v162h84v-162q88 -5 168 -43t135 -102l-98 -96q-93 93 -205 102v-707q112 3 205 99l94 -103q-66 -64 -132.5 -94t-166.5 -41v-172h-84v172q-204 34 -311 158t-107 326zM258 674q0 -145 68.5 -237t197.5 -118v707 q-130 -26 -198 -116t-68 -236z" />
<glyph unicode="&#xa3;" d="M104 0q3 112 67.5 183t162.5 71h12q63 63 84 99.5t21 82.5q0 55 -24.5 99.5t-86.5 105.5h-229v100h143q-60 75 -82 129t-22 127q0 158 113 264.5t282 106.5q94 0 175.5 -37.5t135.5 -105.5q30 -39 43 -84t16 -117h-151q2 10 2 23q0 74 -68 130t-157 56q-94 0 -161 -65.5 t-67 -157.5q0 -61 31 -120t109 -149h303v-100h-234q45 -55 63.5 -97t18.5 -91q0 -56 -26 -109t-86 -117q44 -14 145 -61q76 -35 117 -35q44 0 71 22t47 76l80 -59q-16 -65 -47 -104q-31 -37 -79.5 -60.5t-94.5 -23.5q-70 0 -205 69q-89 44 -117.5 55t-58.5 11q-48 0 -75 -31 t-27 -86h-144z" />
<glyph unicode="&#xa4;" horiz-adv-x="1411" d="M131 1178l92 92l195 -195q89 58 150 79.5t139 21.5q76 0 135 -21t147 -80l197 193l90 -90l-193 -193q101 -140 101 -289q0 -75 -20.5 -134t-76.5 -146l193 -193l-92 -92l-191 193q-133 -101 -284 -101q-138 0 -297 101l-191 -193l-90 92l189 191q-97 135 -97 286 q0 75 22 137.5t77 147.5zM379 700q0 -136 96 -232.5t230 -96.5q136 0 231.5 96t95.5 233t-94.5 234.5t-226.5 97.5q-139 0 -235.5 -96t-96.5 -236z" />
<glyph unicode="&#xa5;" d="M49 1346h180l287 -590l281 590h178l-238 -469h197v-105h-248l-90 -180v-14h297v-105h-297v-473h-162v473h-303v105h303v14l-92 180h-252v105h199z" />
<glyph unicode="&#xa6;" d="M426 313h170v-655h-170v655zM426 678v688h170v-688h-170z" />
<glyph unicode="&#xa7;" d="M113 487q0 267 243 349q-78 40 -119.5 108t-41.5 154q0 127 91 212t228 85q93 0 173 -37.5t124 -102.5q44 -66 49 -161h-145q-7 78 -60 125t-131 47t-132 -50t-54 -122q0 -74 57 -125q31 -31 57.5 -43.5t147.5 -53.5q309 -104 309 -374q0 -228 -221 -324q88 -62 124 -121 t36 -143q0 -145 -99.5 -237.5t-254.5 -92.5q-167 0 -271 101t-104 264h145q5 -109 68 -173.5t166 -64.5q89 0 146.5 56t57.5 141q0 81 -67 137q-35 30 -68.5 44t-138.5 42q-315 86 -315 360zM256 498q0 -109 71 -178.5t183 -69.5t183 70t71 180q0 97 -75.5 170t-176.5 73 q-105 0 -180.5 -72t-75.5 -173z" />
<glyph unicode="&#xa8;" d="M211 1214q0 41 27.5 69t68.5 28t68.5 -28t27.5 -71q0 -40 -27.5 -67t-68.5 -27t-68.5 27.5t-27.5 68.5zM621 1214q0 41 27.5 69t68.5 28t68.5 -28t27.5 -71q0 -40 -27.5 -67t-68.5 -27t-68.5 27.5t-27.5 68.5z" />
<glyph unicode="&#xa9;" horiz-adv-x="1601" d="M94 682q0 146 56 277t151.5 226t228 150.5t279.5 55.5q187 0 347.5 -96t254.5 -259.5t94 -353.5q0 -143 -55.5 -274t-150 -226t-225 -151t-273.5 -56q-191 0 -354 95t-258 258t-95 354zM184 682q0 -127 49 -242.5t131.5 -199.5t197 -133.5t239.5 -49.5q166 0 307.5 84 t224 228t82.5 313q0 168 -81.5 312.5t-221.5 229.5t-303 85q-129 0 -245 -49t-199 -133t-132 -200t-49 -245zM414 684q0 186 110 303t287 117q141 0 241.5 -80t110.5 -203h-86q-20 88 -91 138.5t-175 50.5q-129 0 -208 -89.5t-79 -236.5t78 -235.5t207 -88.5q116 0 191 65.5 t90 180.5h88q-12 -154 -114 -247t-259 -93q-175 0 -283 115.5t-108 302.5z" />
<glyph unicode="&#xaa;" horiz-adv-x="768" d="M61 829q0 130 81 214.5t206 84.5t201 -88v76h113v-569h-113v90q-77 -102 -205 -102q-123 0 -203 82.5t-80 211.5zM180 827q0 -85 51.5 -141.5t128.5 -56.5q78 0 134.5 61.5t56.5 147.5t-52 140t-137 54q-82 0 -132 -56.5t-50 -148.5z" />
<glyph unicode="&#xab;" horiz-adv-x="849" d="M88 481l207 350h123l-207 -350l207 -336h-123zM420 481l205 350h123l-207 -350l207 -336h-123z" />
<glyph unicode="&#xac;" d="M68 420v149h886v-569h-166v420h-720z" />
<glyph unicode="&#xad;" horiz-adv-x="423" d="M0 426v141h424v-141h-424z" />
<glyph unicode="&#xae;" horiz-adv-x="1601" d="M94 682q0 146 56 277t151.5 226t228 150.5t279.5 55.5q187 0 347.5 -96t254.5 -259.5t94 -353.5q0 -143 -55.5 -274t-150 -226t-225 -151t-273.5 -56q-191 0 -354 95t-258 258t-95 354zM184 682q0 -127 49 -242.5t131.5 -199.5t197 -133.5t239.5 -49.5q166 0 307.5 84 t224 228t82.5 313q0 168 -81.5 312.5t-221.5 229.5t-303 85q-129 0 -245 -49t-199 -133t-132 -200t-49 -245zM498 276v803h338q138 0 211 -57t73 -164q0 -141 -145 -194q78 -26 105 -77.5t30 -178.5q5 -100 20 -132h-104q-15 25 -22 150q-4 79 -16 114t-40 54 q-47 33 -153 33h-189v-351h-108zM606 696h195q211 0 211 156q0 78 -47.5 116t-147.5 38h-211v-310z" />
<glyph unicode="&#xaf;" d="M233 1151v127h558v-127h-558z" />
<glyph unicode="&#xb0;" d="M221 1069q0 121 86 206t209 85q120 0 204.5 -86t84.5 -209q0 -119 -85.5 -204t-205.5 -85q-122 0 -207.5 86t-85.5 207zM301 1069q0 -89 62.5 -152t150.5 -63q86 0 148.5 62t62.5 147q0 92 -62 155.5t-153 63.5q-86 0 -147.5 -62.5t-61.5 -150.5z" />
<glyph unicode="&#xb1;" d="M45 109v90h934v-90h-934zM45 678v90h420v395h94v-395h420v-90h-420v-387h-94v387h-420z" />
<glyph unicode="&#xb2;" horiz-adv-x="671" d="M55 537l303 413q65 88 85 125.5t20 71.5q0 50 -37.5 81.5t-97.5 31.5q-67 0 -97 -36t-32 -116h-113q5 125 68.5 189.5t181.5 64.5q107 0 175.5 -58t68.5 -149q0 -53 -22.5 -104.5t-76.5 -120.5l-217 -289h291v-104h-500z" />
<glyph unicode="&#xb3;" horiz-adv-x="671" d="M43 731l107 19q36 -121 157 -121q75 0 126.5 46t51.5 113q0 69 -50 112.5t-130 43.5q-55 0 -104 -29l-51 43l237 285h-287v103h508l-252 -302q106 -3 176 -74t70 -175q0 -117 -82 -194t-207 -77q-107 0 -177 53.5t-93 153.5z" />
<glyph unicode="&#xb4;" d="M432 1081l170 271h182l-239 -271h-113z" />
<glyph unicode="&#xb5;" d="M102 -340v1323h148v-555q0 -101 13.5 -151t51.5 -93q77 -86 187 -86q123 0 198.5 97.5t75.5 253.5v534h146v-983h-146v186q-43 -109 -110.5 -161t-165.5 -52q-83 0 -141.5 36t-108.5 116v-465h-148z" />
<glyph unicode="&#xb6;" d="M76 995q0 100 45 185t123 131q96 55 250 55h368v-1581h-108v1505h-166v-1505h-111v846h-33q-163 0 -265.5 101.5t-102.5 262.5z" />
<glyph unicode="&#xb7;" horiz-adv-x="473" d="M129 498q0 46 30.5 76t76.5 30t76 -30.5t30 -77.5q0 -44 -31 -74.5t-75 -30.5q-46 0 -76.5 30.5t-30.5 76.5z" />
<glyph unicode="&#xb8;" d="M346 -367q79 46 127.5 107t75.5 151l129 -49q-47 -98 -108 -161.5t-158 -116.5z" />
<glyph unicode="&#xb9;" horiz-adv-x="671" d="M152 1073v109l305 188v-831h-117v651z" />
<glyph unicode="&#xba;" horiz-adv-x="731" d="M59 831q0 133 85.5 216t222.5 83q134 0 219.5 -84.5t85.5 -216.5q0 -125 -89 -211t-218 -86q-135 0 -220.5 84t-85.5 215zM174 831q0 -91 52.5 -145.5t140.5 -54.5q83 0 136.5 56t53.5 144q0 91 -52 146t-138 55t-139.5 -55t-53.5 -146z" />
<glyph unicode="&#xbb;" horiz-adv-x="849" d="M102 156l207 350l-207 336h123l207 -336l-207 -350h-123zM434 156l207 350l-207 336h123l205 -336l-205 -350h-123z" />
<glyph unicode="&#xbc;" horiz-adv-x="1597" d="M152 1073v109l303 188v-831h-117v651zM297 20l936 1352l67 -45l-935 -1354zM985 180v84l453 578v-559h100v-103h-100v-180h-115v180h-338zM1108 281h217v282z" />
<glyph unicode="&#xbd;" horiz-adv-x="1597" d="M152 1073v109l303 188v-831h-117v651zM297 20l936 1352l67 -45l-935 -1354zM983 0l303 412q66 88 85.5 124.5t19.5 71.5q0 49 -37.5 80t-96.5 31q-69 0 -99 -35t-32 -115h-112q5 123 68.5 187.5t181.5 64.5q107 0 175 -58t68 -149q0 -52 -22.5 -103.5t-75.5 -119.5 l-217 -287h291v-104h-500z" />
<glyph unicode="&#xbe;" horiz-adv-x="1597" d="M43 731l107 19q36 -121 157 -121q75 0 126.5 46t51.5 113q0 69 -50 112.5t-130 43.5q-55 0 -104 -29l-51 43l237 285h-287v103h508l-252 -302q106 -3 176 -74t70 -175q0 -117 -82 -194t-207 -77q-107 0 -177 53.5t-93 153.5zM295 20l938 1352l67 -45l-938 -1354zM983 180 v84l455 578v-559h98v-103h-98v-180h-115v180h-340zM1108 281h217v282z" />
<glyph unicode="&#xbf;" horiz-adv-x="872" d="M94 -76q0 101 47.5 180t157.5 162q59 44 83 73.5t33 66.5t9 110v94h151q1 -80 0 -124.5t-8 -90t-16 -69t-31.5 -54t-48 -52.5t-70.5 -58q-84 -64 -115.5 -114.5t-31.5 -121.5q0 -92 57.5 -153.5t145.5 -61.5q85 0 140.5 53.5t55.5 135.5v26h150q-1 -167 -93.5 -262.5 t-250.5 -95.5t-261.5 100.5t-103.5 255.5zM389 860q0 44 31.5 74.5t75.5 30.5q46 0 76 -30.5t30 -76.5t-30 -76t-76 -30t-76.5 30.5t-30.5 77.5z" />
<glyph unicode="&#xc0;" horiz-adv-x="1241" d="M10 0l514 1366h205l502 -1366h-193l-112 315h-613l-125 -315h-178zM340 1741h188l181 -268h-121zM365 463h507l-249 686z" />
<glyph unicode="&#xc1;" horiz-adv-x="1241" d="M10 0l514 1366h205l502 -1366h-193l-112 315h-613l-125 -315h-178zM365 463h507l-249 686zM530 1473l183 268h188l-248 -268h-123z" />
<glyph unicode="&#xc2;" horiz-adv-x="1241" d="M10 0l514 1366h205l502 -1366h-193l-112 315h-613l-125 -315h-178zM332 1473l221 272h143l213 -272h-133l-155 169l-154 -169h-135zM365 463h507l-249 686z" />
<glyph unicode="&#xc3;" horiz-adv-x="1241" d="M10 0l514 1366h205l502 -1366h-193l-112 315h-613l-125 -315h-178zM307 1526q46 99 90.5 140.5t104.5 41.5q29 0 60.5 -11t94.5 -44q74 -35 95 -35q57 0 98 90l111 -43q-49 -92 -95.5 -131t-105.5 -39q-31 0 -57.5 8.5t-88.5 40.5q-68 35 -100 35q-60 0 -96 -86zM365 463 h507l-249 686z" />
<glyph unicode="&#xc4;" horiz-adv-x="1241" d="M10 0l514 1366h205l502 -1366h-193l-112 315h-613l-125 -315h-178zM307 1612q0 44 30.5 74t74.5 30t74 -31t30 -75q0 -43 -30.5 -73t-73.5 -30q-44 0 -74.5 30.5t-30.5 74.5zM365 463h507l-249 686zM725 1612q0 44 30 74t74 30q45 0 75 -30t30 -76q0 -43 -31 -73t-74 -30 q-44 0 -74 30.5t-30 74.5z" />
<glyph unicode="&#xc5;" horiz-adv-x="1241" d="M10 0l514 1366h205l502 -1366h-193l-112 315h-613l-125 -315h-178zM365 463h507l-249 686zM457 1616q0 68 48 115t118 47q69 0 115 -47.5t46 -118.5q0 -66 -48 -113t-115 -47q-69 0 -116.5 47.5t-47.5 116.5zM522 1614q0 -40 29 -68t70 -28t69.5 28t28.5 68 q0 41 -28 69.5t-68 28.5q-43 0 -72 -28t-29 -70z" />
<glyph unicode="&#xc6;" horiz-adv-x="1665" d="M-8 0l764 1366h809v-147h-533v-457h533v-148h-533v-467h533v-147h-705v342h-495l-191 -342h-182zM442 485h418v756z" />
<glyph unicode="&#xc7;" horiz-adv-x="1290" d="M90 682q0 152 49.5 283.5t135.5 225t207.5 147t260.5 53.5q153 0 271 -55t231 -179l-119 -110q-98 102 -183.5 144t-194.5 42q-209 0 -345.5 -156t-136.5 -395q0 -238 139 -393.5t351 -155.5q113 0 202 45.5t168 143.5l115 -115q-103 -121 -222.5 -176.5t-277.5 -55.5 q-289 0 -469 201q-86 97 -134 230t-48 276zM496 -358q78 50 121 106t63 135l160 -55q-32 -77 -93.5 -138.5t-162.5 -117.5z" />
<glyph unicode="&#xc8;" horiz-adv-x="968" d="M154 0v1366h710v-147h-538v-457h538v-148h-538v-467h538v-147h-710zM205 1741h186l182 -268h-122z" />
<glyph unicode="&#xc9;" horiz-adv-x="968" d="M154 0v1366h710v-147h-538v-457h538v-148h-538v-467h538v-147h-710zM395 1473l183 268h186l-246 -268h-123z" />
<glyph unicode="&#xca;" horiz-adv-x="968" d="M154 0v1366h710v-147h-538v-457h538v-148h-538v-467h538v-147h-710zM195 1473l223 272h143l213 -272h-135l-154 169l-153 -169h-137z" />
<glyph unicode="&#xcb;" horiz-adv-x="968" d="M154 0v1366h710v-147h-538v-457h538v-148h-538v-467h538v-147h-710zM170 1612q0 44 30 74t74 30t74.5 -31t30.5 -75q0 -43 -31 -73t-74 -30q-44 0 -74 30.5t-30 74.5zM588 1612q0 44 30 74t74 30t74.5 -31t30.5 -75q0 -43 -31 -73t-74 -30q-44 0 -74 30.5t-30 74.5z" />
<glyph unicode="&#xcc;" horiz-adv-x="512" d="M-25 1741h189l180 -268h-123zM170 0v1366h172v-1366h-172z" />
<glyph unicode="&#xcd;" horiz-adv-x="512" d="M168 1473l182 268h187l-246 -268h-123zM170 0v1366h172v-1366h-172z" />
<glyph unicode="&#xce;" horiz-adv-x="512" d="M-33 1473l223 272h142l213 -272h-133l-154 169l-156 -169h-135zM170 0v1366h172v-1366h-172z" />
<glyph unicode="&#xcf;" horiz-adv-x="512" d="M0 1612q0 44 30 74t74 30t74.5 -31t30.5 -75q0 -43 -31 -73t-74 -30q-44 0 -74 30.5t-30 74.5zM170 0v1366h172v-1366h-172zM303 1612q0 44 30.5 74t74.5 30t74 -31t30 -75q0 -43 -30.5 -73t-73.5 -30q-44 0 -74.5 30.5t-30.5 74.5z" />
<glyph unicode="&#xd0;" horiz-adv-x="1282" d="M16 623v139h154v604h362q309 0 484.5 -176.5t175.5 -487.5q0 -172 -55.5 -312t-159.5 -232q-177 -158 -475 -158h-332v623h-154zM342 147h61q173 0 264.5 22t163.5 81q185 144 185 450q0 249 -127.5 385t-360.5 136h-186v-459h334v-139h-334v-476z" />
<glyph unicode="&#xd1;" horiz-adv-x="1398" d="M170 0v1366h158l729 -1028v1028h172v-1366h-152l-735 1044v-1044h-172zM385 1526q47 100 91 141t104 41q30 0 61 -11t96 -44q71 -35 92 -35q61 0 99 90l112 -43q-51 -92 -97 -131t-105 -39q-30 0 -57.5 9t-86.5 40q-68 35 -100 35q-62 0 -96 -86z" />
<glyph unicode="&#xd2;" horiz-adv-x="1519" d="M90 676q0 151 51.5 283.5t141 227.5t215 149.5t268.5 54.5q142 0 274 -61.5t230 -174.5q83 -96 121.5 -213.5t38.5 -271.5q0 -160 -60 -298t-172 -233q-92 -79 -204.5 -121.5t-231.5 -42.5q-152 0 -293 68t-236 188q-143 181 -143 445zM266 682q0 -238 140 -393.5 t352 -155.5q103 0 199 43t165 121q60 66 95.5 168t35.5 207q0 269 -155 418q-68 66 -156.5 103.5t-179.5 37.5q-214 0 -355 -156.5t-141 -392.5zM479 1741h189l182 -268h-123z" />
<glyph unicode="&#xd3;" horiz-adv-x="1519" d="M90 676q0 151 51.5 283.5t141 227.5t215 149.5t268.5 54.5q142 0 274 -61.5t230 -174.5q83 -96 121.5 -213.5t38.5 -271.5q0 -160 -60 -298t-172 -233q-92 -79 -204.5 -121.5t-231.5 -42.5q-152 0 -293 68t-236 188q-143 181 -143 445zM266 682q0 -238 140 -393.5 t352 -155.5q103 0 199 43t165 121q60 66 95.5 168t35.5 207q0 269 -155 418q-68 66 -156.5 103.5t-179.5 37.5q-214 0 -355 -156.5t-141 -392.5zM672 1473l180 268h188l-245 -268h-123z" />
<glyph unicode="&#xd4;" horiz-adv-x="1519" d="M90 676q0 151 51.5 283.5t141 227.5t215 149.5t268.5 54.5q142 0 274 -61.5t230 -174.5q83 -96 121.5 -213.5t38.5 -271.5q0 -160 -60 -298t-172 -233q-92 -79 -204.5 -121.5t-231.5 -42.5q-152 0 -293 68t-236 188q-143 181 -143 445zM266 682q0 -238 140 -393.5 t352 -155.5q103 0 199 43t165 121q60 66 95.5 168t35.5 207q0 269 -155 418q-68 66 -156.5 103.5t-179.5 37.5q-214 0 -355 -156.5t-141 -392.5zM471 1473l223 272h142l213 -272h-134l-153 169l-154 -169h-137z" />
<glyph unicode="&#xd5;" horiz-adv-x="1519" d="M90 676q0 151 51.5 283.5t141 227.5t215 149.5t268.5 54.5q142 0 274 -61.5t230 -174.5q83 -96 121.5 -213.5t38.5 -271.5q0 -160 -60 -298t-172 -233q-92 -79 -204.5 -121.5t-231.5 -42.5q-152 0 -293 68t-236 188q-143 181 -143 445zM266 682q0 -238 140 -393.5 t352 -155.5q103 0 199 43t165 121q60 66 95.5 168t35.5 207q0 269 -155 418q-68 66 -156.5 103.5t-179.5 37.5q-214 0 -355 -156.5t-141 -392.5zM446 1526q47 100 91 141t104 41q29 0 61.5 -11t96.5 -44q71 -35 92 -35q60 0 98 90l113 -43q-51 -92 -97.5 -131t-105.5 -39 q-30 0 -56.5 9t-86.5 40q-68 35 -101 35q-62 0 -96 -86z" />
<glyph unicode="&#xd6;" horiz-adv-x="1519" d="M90 676q0 151 51.5 283.5t141 227.5t215 149.5t268.5 54.5q142 0 274 -61.5t230 -174.5q83 -96 121.5 -213.5t38.5 -271.5q0 -160 -60 -298t-172 -233q-92 -79 -204.5 -121.5t-231.5 -42.5q-152 0 -293 68t-236 188q-143 181 -143 445zM266 682q0 -238 140 -393.5 t352 -155.5q103 0 199 43t165 121q60 66 95.5 168t35.5 207q0 269 -155 418q-68 66 -156.5 103.5t-179.5 37.5q-214 0 -355 -156.5t-141 -392.5zM446 1612q0 44 30.5 74t74.5 30t74 -31t30 -75q0 -43 -30.5 -73t-73.5 -30q-44 0 -74.5 30.5t-30.5 74.5zM864 1612 q0 44 30.5 74t74.5 30t74 -31t30 -75q0 -43 -30.5 -73t-73.5 -30q-44 0 -74.5 30.5t-30.5 74.5z" />
<glyph unicode="&#xd7;" d="M123 377l326 323l-324 324l63 63l322 -323l324 326l65 -66l-324 -324l324 -323l-63 -64l-324 324l-324 -326z" />
<glyph unicode="&#xd8;" horiz-adv-x="1515" d="M90 674q0 324 199 520q95 94 217.5 145.5t251.5 51.5q246 0 450 -177l144 156l57 -55l-145 -156q89 -123 125 -228t36 -243q0 -151 -51.5 -284t-141 -227t-215 -148t-269.5 -54q-124 0 -226 41.5t-211 135.5l-153 -162l-56 53l154 164q-91 113 -128.5 218t-37.5 249z M266 682q0 -106 25.5 -190t81.5 -164l719 770q-156 135 -330 135q-215 0 -355.5 -156t-140.5 -395zM426 266q148 -133 326 -133q218 0 357.5 156t139.5 401q0 106 -23.5 183.5t-80.5 162.5z" />
<glyph unicode="&#xd9;" horiz-adv-x="1302" d="M145 557v809h172v-813q0 -130 20.5 -204t70.5 -124q43 -41 109.5 -66.5t131.5 -25.5t131.5 27.5t110.5 72.5q55 53 73.5 119.5t18.5 204.5v809h176v-809q0 -154 -27.5 -250.5t-93.5 -169.5q-69 -78 -168.5 -120t-216.5 -42q-121 0 -224.5 44.5t-172.5 127.5 q-63 72 -87 161t-24 249zM373 1741h188l180 -268h-123z" />
<glyph unicode="&#xda;" horiz-adv-x="1302" d="M145 557v809h172v-813q0 -130 20.5 -204t70.5 -124q43 -41 109.5 -66.5t131.5 -25.5t131.5 27.5t110.5 72.5q55 53 73.5 119.5t18.5 204.5v809h176v-809q0 -154 -27.5 -250.5t-93.5 -169.5q-69 -78 -168.5 -120t-216.5 -42q-121 0 -224.5 44.5t-172.5 127.5 q-63 72 -87 161t-24 249zM563 1473l182 268h189l-248 -268h-123z" />
<glyph unicode="&#xdb;" horiz-adv-x="1302" d="M145 557v809h172v-813q0 -130 20.5 -204t70.5 -124q43 -41 109.5 -66.5t131.5 -25.5t131.5 27.5t110.5 72.5q55 53 73.5 119.5t18.5 204.5v809h176v-809q0 -154 -27.5 -250.5t-93.5 -169.5q-69 -78 -168.5 -120t-216.5 -42q-121 0 -224.5 44.5t-172.5 127.5 q-63 72 -87 161t-24 249zM365 1473l221 272h143l213 -272h-135l-154 169l-153 -169h-135z" />
<glyph unicode="&#xdc;" horiz-adv-x="1302" d="M145 557v809h172v-813q0 -130 20.5 -204t70.5 -124q43 -41 109.5 -66.5t131.5 -25.5t131.5 27.5t110.5 72.5q55 53 73.5 119.5t18.5 204.5v809h176v-809q0 -154 -27.5 -250.5t-93.5 -169.5q-69 -78 -168.5 -120t-216.5 -42q-121 0 -224.5 44.5t-172.5 127.5 q-63 72 -87 161t-24 249zM338 1612q0 44 30 74t74 30t74.5 -31t30.5 -75q0 -43 -31 -73t-74 -30q-44 0 -74 30.5t-30 74.5zM758 1612q0 44 30 74t74 30t74.5 -30t30.5 -76q0 -43 -31 -73t-74 -30q-44 0 -74 30.5t-30 74.5z" />
<glyph unicode="&#xdd;" horiz-adv-x="1083" d="M-12 1366h202l353 -586l348 586h205l-465 -764v-602h-172v602zM453 1473l182 268h186l-246 -268h-122z" />
<glyph unicode="&#xde;" horiz-adv-x="1087" d="M160 0v1366h172v-172h192q243 0 372.5 -108t129.5 -310q0 -101 -38 -188t-107 -144q-119 -94 -338 -94h-211v-350h-172zM332 498h178q107 0 170 24q78 28 125 95.5t47 154.5q0 88 -46 154t-128 94q-80 27 -191 27h-155v-549z" />
<glyph unicode="&#xdf;" horiz-adv-x="1013" d="M59 807v137h109v117q0 148 90.5 230.5t251.5 82.5q154 0 248 -83.5t94 -221.5q0 -46 -15.5 -96.5t-41.5 -85.5q-20 -29 -46.5 -48t-80.5 -44q58 -13 91.5 -30.5t67.5 -51.5q109 -109 109 -291q0 -198 -101.5 -318t-267.5 -120q-88 0 -159 39l41 127q70 -21 108 -21 q100 0 161.5 80t61.5 209q0 139 -68 209t-208 75v150q47 6 71.5 14t45.5 25q33 25 53 68.5t20 91.5q0 79 -52 130.5t-130 51.5q-46 0 -87.5 -17.5t-66.5 -46.5q-34 -42 -34 -133v-1036h-156v807h-109z" />
<glyph unicode="&#xe0;" horiz-adv-x="1181" d="M80 469q0 217 126.5 357.5t321.5 140.5q107 0 189 -43.5t151 -135.5v156h156v-944h-156v182q-71 -106 -154 -155.5t-190 -49.5q-195 0 -319.5 138.5t-124.5 353.5zM244 465q0 -151 87 -251.5t216 -100.5q134 0 228.5 108t94.5 260q0 154 -89 250t-230 96 q-150 0 -229 -112q-78 -108 -78 -250zM317 1352h185l170 -271h-113z" />
<glyph unicode="&#xe1;" horiz-adv-x="1181" d="M80 469q0 217 126.5 357.5t321.5 140.5q107 0 189 -43.5t151 -135.5v156h156v-944h-156v182q-71 -106 -154 -155.5t-190 -49.5q-195 0 -319.5 138.5t-124.5 353.5zM244 465q0 -151 87 -251.5t216 -100.5q134 0 228.5 108t94.5 260q0 154 -89 250t-230 96 q-150 0 -229 -112q-78 -108 -78 -250zM510 1081l168 271h184l-241 -271h-111z" />
<glyph unicode="&#xe2;" horiz-adv-x="1181" d="M80 469q0 217 126.5 357.5t321.5 140.5q107 0 189 -43.5t151 -135.5v156h156v-944h-156v182q-71 -106 -154 -155.5t-190 -49.5q-195 0 -319.5 138.5t-124.5 353.5zM244 465q0 -151 87 -251.5t216 -100.5q134 0 228.5 108t94.5 260q0 154 -89 250t-230 96 q-150 0 -229 -112q-78 -108 -78 -250zM307 1081l211 273h148l208 -273h-135l-149 172l-150 -172h-133z" />
<glyph unicode="&#xe3;" horiz-adv-x="1181" d="M80 469q0 217 126.5 357.5t321.5 140.5q107 0 189 -43.5t151 -135.5v156h156v-944h-156v182q-71 -106 -154 -155.5t-190 -49.5q-195 0 -319.5 138.5t-124.5 353.5zM244 465q0 -151 87 -251.5t216 -100.5q134 0 228.5 108t94.5 260q0 154 -89 250t-230 96 q-150 0 -229 -112q-78 -108 -78 -250zM285 1165q82 160 194 160q38 0 79.5 -17t111.5 -63q31 -20 55 -20q56 0 94 86l103 -37q-46 -92 -91 -132t-102 -40q-32 0 -66 14.5t-110 59.5q-40 26 -68 26q-58 0 -96 -84z" />
<glyph unicode="&#xe4;" horiz-adv-x="1181" d="M80 469q0 217 126.5 357.5t321.5 140.5q107 0 189 -43.5t151 -135.5v156h156v-944h-156v182q-71 -106 -154 -155.5t-190 -49.5q-195 0 -319.5 138.5t-124.5 353.5zM244 465q0 -151 87 -251.5t216 -100.5q135 0 229 107.5t94 260.5q0 154 -89 250t-230 96 q-150 0 -229 -112q-78 -108 -78 -250zM299 1214q0 41 27.5 69t68.5 28t69 -28t28 -71q0 -40 -28 -67t-69 -27t-68.5 27.5t-27.5 68.5zM709 1214q0 41 27.5 69t68.5 28t68.5 -28t27.5 -71q0 -40 -27.5 -67t-68.5 -27t-68.5 27.5t-27.5 68.5z" />
<glyph unicode="&#xe5;" horiz-adv-x="1181" d="M80 469q0 217 126.5 357.5t321.5 140.5q107 0 189 -43.5t151 -135.5v156h156v-944h-156v182q-71 -106 -154 -155.5t-190 -49.5q-195 0 -319.5 138.5t-124.5 353.5zM244 465q0 -151 87 -251.5t216 -100.5q135 0 229 107.5t94 260.5q0 154 -89 250t-230 96 q-150 0 -229 -112q-78 -108 -78 -250zM393 1223q0 69 48 116t118 47q69 0 116.5 -47.5t47.5 -117.5q0 -66 -48 -113t-116 -47q-70 0 -118 47t-48 115zM459 1223q0 -41 28.5 -69t71.5 -28q41 0 69.5 28.5t28.5 68.5q0 41 -28.5 69.5t-69.5 28.5q-43 0 -71.5 -27.5 t-28.5 -70.5z" />
<glyph unicode="&#xe6;" horiz-adv-x="1898" d="M80 471q0 217 125.5 356.5t320.5 139.5q219 0 355 -176v153h153v-153q34 53 61.5 79t69.5 48q88 49 203 49q206 0 336 -148q60 -69 93.5 -158t33.5 -180q0 -32 -2 -59h-795q11 -70 27 -110.5t49 -78.5q43 -52 108 -82t134 -30q176 0 293 164l133 -56q-134 -252 -418 -252 q-112 0 -190.5 43.5t-135.5 137.5v-158h-153v174q-130 -197 -349 -197q-201 0 -326.5 137t-125.5 357zM244 467q0 -152 91 -253t226 -101t227.5 104t92.5 258q0 157 -88.5 254.5t-229.5 97.5q-175 0 -258 -137q-61 -94 -61 -223zM1034 537h633q-20 137 -103 213.5t-210 76.5 q-79 0 -148.5 -33.5t-111.5 -93.5q-45 -61 -60 -163z" />
<glyph unicode="&#xe7;" horiz-adv-x="935" d="M80 469q0 220 132 359t339 139q199 0 344 -142l-100 -100q-107 98 -240 98q-139 0 -227 -97t-88 -251q0 -157 87.5 -255.5t225.5 -98.5q134 0 242 102l96 -106q-80 -73 -163 -106.5t-185 -33.5q-203 0 -333 138.5t-130 353.5zM322 -367q78 46 126 107.5t76 150.5l129 -49 q-47 -98 -108 -161.5t-158 -116.5z" />
<glyph unicode="&#xe8;" horiz-adv-x="1103" d="M80 469q0 218 134 358t341 140q205 0 342 -138.5t137 -345.5q0 -38 -2 -61h-786q6 -60 19 -97t42 -75q94 -129 254 -129q88 0 165 44t118 118l137 -52q-58 -118 -171 -186t-249 -68q-211 0 -346 138.5t-135 353.5zM248 537h620q-4 55 -16 90t-37 71q-44 60 -113 94.5 t-147 34.5t-145.5 -34.5t-108.5 -96.5q-37 -57 -53 -159zM281 1352h182l170 -271h-113z" />
<glyph unicode="&#xe9;" horiz-adv-x="1103" d="M80 469q0 218 134 358t341 140q205 0 342 -138.5t137 -345.5q0 -38 -2 -61h-786q6 -60 19 -97t42 -75q94 -129 254 -129q88 0 165 44t118 118l137 -52q-58 -118 -171 -186t-249 -68q-211 0 -346 138.5t-135 353.5zM248 537h620q-4 55 -16 90t-37 71q-44 60 -113 94.5 t-147 34.5t-145.5 -34.5t-108.5 -96.5q-37 -57 -53 -159zM471 1081l170 271h182l-239 -271h-113z" />
<glyph unicode="&#xea;" horiz-adv-x="1103" d="M80 469q0 218 134 358t341 140q205 0 342 -138.5t137 -345.5q0 -38 -2 -61h-786q6 -60 19 -97t42 -75q94 -129 254 -129q88 0 165 44t118 118l137 -52q-58 -118 -171 -186t-249 -68q-211 0 -346 138.5t-135 353.5zM248 537h620q-4 55 -16 90t-37 71q-44 60 -113 94.5 t-147 34.5t-145.5 -34.5t-108.5 -96.5q-37 -57 -53 -159zM268 1081l213 273h148l207 -273h-136l-149 172l-150 -172h-133z" />
<glyph unicode="&#xeb;" horiz-adv-x="1103" d="M80 469q0 218 134 358t341 140q205 0 342 -138.5t137 -345.5q0 -38 -2 -61h-786q6 -60 19 -97t42 -75q94 -129 254 -129q88 0 165 44t118 118l137 -52q-58 -118 -171 -186t-249 -68q-211 0 -346 138.5t-135 353.5zM248 537h620q-4 55 -16 90t-37 71q-44 60 -113 94.5 t-147 34.5t-145.5 -34.5t-108.5 -96.5q-37 -57 -53 -159zM250 1214q0 41 27.5 69t68.5 28t68.5 -28t27.5 -71q0 -40 -27.5 -67t-68.5 -27t-68.5 27.5t-27.5 68.5zM659 1214q0 41 28 69t69 28t68.5 -28t27.5 -71q0 -40 -27.5 -67t-68.5 -27t-69 27.5t-28 68.5z" />
<glyph unicode="&#xec;" horiz-adv-x="468" d="M-37 1352h184l168 -271h-110zM158 0v944h155v-944h-155z" />
<glyph unicode="&#xed;" horiz-adv-x="468" d="M154 1081l170 271h182l-240 -271h-112zM156 0v944h155v-944h-155z" />
<glyph unicode="&#xee;" horiz-adv-x="468" d="M-49 1081l213 273h147l207 -273h-135l-150 172l-149 -172h-133zM156 0v944h155v-944h-155z" />
<glyph unicode="&#xef;" horiz-adv-x="468" d="M-4 1214q0 41 27.5 69t68.5 28t68.5 -28t27.5 -71q0 -40 -27.5 -67t-68.5 -27t-68.5 27.5t-27.5 68.5zM156 0v944h155v-944h-155zM281 1214q0 41 27.5 69t68.5 28t68.5 -28t27.5 -71q0 -40 -27.5 -67t-68.5 -27t-68.5 27.5t-27.5 68.5z" />
<glyph unicode="&#xf0;" horiz-adv-x="1124" d="M80 475q0 217 134 354.5t345 137.5q66 0 121.5 -16t124.5 -54q-25 71 -75.5 148.5t-111.5 138.5l-206 -117l-43 80l182 100q-38 35 -106 82t-101 60l49 63q50 -17 124 -61.5t130 -90.5l211 115l45 -78l-178 -96q150 -141 234.5 -332.5t84.5 -390.5q0 -264 -145 -403 q-66 -66 -155 -102t-187 -36q-211 0 -344 139t-133 359zM240 475q0 -159 88 -256.5t231 -97.5q145 0 234.5 99t89.5 257q0 153 -90.5 249.5t-233.5 96.5q-141 0 -230 -97t-89 -251z" />
<glyph unicode="&#xf1;" horiz-adv-x="1042" d="M156 0v944h155v-133q61 83 127 119.5t154 36.5q131 0 219 -78q44 -43 62 -99t18 -153v-637h-156v602q0 116 -35 162q-20 29 -60 46t-87 17q-110 0 -180 -79q-34 -37 -48 -76t-14 -97v-575h-155zM215 1165q43 83 89.5 121.5t105.5 38.5q38 0 78.5 -17t111.5 -63 q31 -20 53 -20q59 0 97 86l102 -37q-46 -92 -91 -132t-102 -40q-32 0 -67 15t-109 59q-43 26 -67 26q-59 0 -97 -84z" />
<glyph unicode="&#xf2;" horiz-adv-x="1122" d="M80 473q0 220 134 357t349 137q209 0 343 -140t134 -358q0 -136 -64 -249t-175 -178t-244 -65q-211 0 -344 139t-133 357zM240 471q0 -157 88 -253.5t233 -96.5q140 0 230 98.5t90 251.5q0 158 -87.5 255t-230.5 97q-146 0 -234.5 -96.5t-88.5 -255.5zM289 1352h184 l168 -271h-111z" />
<glyph unicode="&#xf3;" horiz-adv-x="1122" d="M80 473q0 220 134 357t349 137q209 0 343 -140t134 -358q0 -136 -64 -249t-175 -178t-244 -65q-211 0 -344 139t-133 357zM240 471q0 -157 88 -253.5t233 -96.5q140 0 230 98.5t90 251.5q0 158 -87.5 255t-230.5 97q-146 0 -234.5 -96.5t-88.5 -255.5zM479 1081l170 271 h182l-239 -271h-113z" />
<glyph unicode="&#xf4;" horiz-adv-x="1122" d="M80 473q0 220 134 357t349 137q209 0 343 -140t134 -358q0 -136 -64 -249t-175 -178t-244 -65q-211 0 -344 139t-133 357zM240 471q0 -157 88 -253.5t233 -96.5q140 0 230 98.5t90 251.5q0 158 -87.5 255t-230.5 97q-146 0 -234.5 -96.5t-88.5 -255.5zM276 1081l213 273 h148l207 -273h-135l-150 172l-147 -172h-136z" />
<glyph unicode="&#xf5;" horiz-adv-x="1122" d="M80 473q0 220 134 357t349 137q209 0 343 -140t134 -358q0 -136 -64 -249t-175 -178t-244 -65q-211 0 -344 139t-133 357zM240 471q0 -157 88 -253.5t233 -96.5q140 0 230 98.5t90 251.5q0 158 -87.5 255t-230.5 97q-146 0 -234.5 -96.5t-88.5 -255.5zM256 1165 q43 83 89.5 121.5t105.5 38.5q37 0 77.5 -17t110.5 -63q31 -20 55 -20q59 0 94 86l105 -37q-48 -93 -92.5 -132.5t-102.5 -39.5q-31 0 -65.5 15t-108.5 59q-43 26 -67 26q-59 0 -97 -84z" />
<glyph unicode="&#xf6;" horiz-adv-x="1122" d="M80 473q0 220 134 357t349 137q209 0 343 -140t134 -358q0 -207 -139.5 -349.5t-343.5 -142.5q-211 0 -344 139t-133 357zM240 471q0 -157 88 -253.5t233 -96.5q140 0 230 98.5t90 251.5q0 158 -87.5 255t-230.5 97q-146 0 -234.5 -96.5t-88.5 -255.5zM260 1214 q0 41 27.5 69t68.5 28t69 -28t28 -71q0 -40 -28 -67t-69 -27t-68.5 27.5t-27.5 68.5zM668 1214q0 41 27.5 69t68.5 28t68.5 -28t27.5 -71q0 -40 -27.5 -67t-68.5 -27t-68.5 27.5t-27.5 68.5z" />
<glyph unicode="&#xf7;" d="M45 655v90h934v-90h-934zM430 324q0 34 24 58t58 24t58 -24t24 -58t-24 -58t-58 -24t-58 24t-24 58zM430 1075q0 34 24.5 58t59.5 24q32 0 56 -24t24 -58t-24 -58t-58 -24t-58 24t-24 58z" />
<glyph unicode="&#xf8;" horiz-adv-x="1122" d="M78 29l110 114q-59 80 -83.5 155t-24.5 173q0 218 133 357t342 139q175 0 315 -107l123 129l56 -55l-123 -127q62 -83 88 -158.5t26 -173.5q0 -218 -136.5 -358t-350.5 -140q-175 0 -309 111l-109 -115zM236 471q0 -65 14 -113t49 -102l463 496q-88 71 -205 71 q-143 0 -232 -97.5t-89 -254.5zM352 199q93 -78 211 -78q140 0 230 99.5t90 254.5q0 65 -14.5 114t-51.5 107z" />
<glyph unicode="&#xf9;" horiz-adv-x="993" d="M129 340v604h156v-600q0 -100 58.5 -163.5t152.5 -63.5q50 0 94 19t72 52q43 51 43 152v604h157v-604q0 -98 -21 -157.5t-73 -106.5q-110 -99 -272 -99q-164 0 -273 101q-94 91 -94 262zM223 1352h185l170 -271h-113z" />
<glyph unicode="&#xfa;" horiz-adv-x="993" d="M129 340v604h156v-600q0 -100 58.5 -163.5t152.5 -63.5q50 0 94 19t72 52q43 51 43 152v604h157v-604q0 -98 -21 -157.5t-73 -106.5q-110 -99 -272 -99q-164 0 -273 101q-94 91 -94 262zM416 1081l168 271h184l-242 -271h-110z" />
<glyph unicode="&#xfb;" horiz-adv-x="993" d="M129 340v604h156v-600q0 -100 58.5 -163.5t152.5 -63.5q50 0 94 19t72 52q43 51 43 152v604h157v-604q0 -98 -21 -157.5t-73 -106.5q-110 -99 -272 -99q-164 0 -273 101q-94 91 -94 262zM213 1081l211 273h147l209 -273h-135l-149 172l-150 -172h-133z" />
<glyph unicode="&#xfc;" horiz-adv-x="993" d="M129 340v604h156v-600q0 -101 58.5 -164t152.5 -63q50 0 94 19t72 52q43 51 43 152v604h157v-604q0 -98 -21 -157.5t-73 -106.5q-110 -99 -272 -99q-164 0 -273 101q-94 91 -94 262zM195 1214q0 41 27.5 69t68.5 28t68.5 -28t27.5 -71q0 -40 -27.5 -67t-68.5 -27 t-68.5 27.5t-27.5 68.5zM604 1214q0 41 27.5 69t68.5 28t69 -28t28 -71q0 -40 -28 -67t-69 -27t-68.5 27.5t-27.5 68.5z" />
<glyph unicode="&#xfd;" horiz-adv-x="897" d="M12 944h166l254 -700l283 700h170l-563 -1399h-170l196 484zM367 1081l170 271h184l-242 -271h-112z" />
<glyph unicode="&#xfe;" horiz-adv-x="1175" d="M152 -442v1808h155v-594q68 105 147 150t197 45q196 0 320.5 -136.5t124.5 -351.5q0 -222 -124 -362t-321 -140q-107 0 -207 50q-44 22 -72 46t-65 74v-589h-155zM307 457q0 -155 85.5 -249.5t225.5 -94.5t226 99.5t86 260.5q0 165 -82 256q-41 46 -100.5 72t-122.5 26 q-141 0 -229.5 -102.5t-88.5 -267.5z" />
<glyph unicode="&#xff;" horiz-adv-x="897" d="M12 944h166l254 -700l283 700h170l-563 -1399h-170l196 484zM147 1214q0 41 28 69t69 28t68.5 -28t27.5 -71q0 -40 -27.5 -67t-68.5 -27t-69 27.5t-28 68.5zM557 1214q0 41 27.5 69t68.5 28t69 -28t28 -71q0 -40 -28 -67t-69 -27t-68.5 27.5t-27.5 68.5z" />
<glyph unicode="&#x152;" horiz-adv-x="2043" d="M94 690q0 202 85.5 362.5t237.5 249.5t343 89q155 0 271 -59t210 -185v219h701v-147h-531v-457h531v-148h-531v-467h531v-147h-701v236q-47 -66 -81 -100t-87 -66q-151 -95 -325 -95q-133 0 -257.5 53.5t-214.5 149.5q-86 92 -134 226.5t-48 285.5zM270 686 q0 -238 138.5 -394.5t347.5 -156.5q104 0 200.5 44.5t163.5 123.5q57 66 91 167t34 204q0 251 -131.5 404t-347.5 153q-221 0 -358.5 -151t-137.5 -394z" />
<glyph unicode="&#x153;" horiz-adv-x="1890" d="M80 469q0 220 133 359t344 139q158 0 279 -86q42 -30 67 -61t55 -89q35 63 63.5 95t76.5 63q119 78 262 78q173 0 299 -106t160 -279q10 -59 10 -162h-789q6 -64 21 -104t47 -78q46 -54 113.5 -85.5t138.5 -31.5q51 0 107.5 16.5t97.5 44.5q25 16 44 37.5t50 65.5 l125 -54q-32 -58 -58.5 -90t-68.5 -63q-135 -101 -293 -101q-75 0 -151 25.5t-138 71.5q-40 28 -64 59t-53 92q-29 -61 -53.5 -92t-70.5 -65q-126 -91 -279 -91q-207 0 -341 138.5t-134 353.5zM240 475q0 -157 90 -255.5t235 -98.5q139 0 230.5 98.5t91.5 247.5 q0 156 -91.5 256t-232.5 100t-232 -98t-91 -250zM1038 535h637q-8 60 -19 94t-36 69q-43 61 -112.5 95t-151.5 34q-154 0 -244 -112q-34 -40 -49.5 -78t-24.5 -102z" />
<glyph unicode="&#x178;" horiz-adv-x="1083" d="M-12 1366h202l353 -586l348 586h205l-465 -764v-602h-172v602zM227 1612q0 44 30.5 74t74.5 30t74 -31t30 -75q0 -43 -30.5 -73t-73.5 -30q-44 0 -74.5 30.5t-30.5 74.5zM647 1612q0 44 30.5 74t74.5 30t74 -31t30 -75q0 -43 -30.5 -73t-73.5 -30q-44 0 -74.5 30.5 t-30.5 74.5z" />
<glyph unicode="&#x2c6;" d="M229 1081l213 273h148l207 -273h-135l-150 172l-150 -172h-133z" />
<glyph unicode="&#x2dc;" d="M207 1165q43 83 89.5 121.5t104.5 38.5q38 0 79.5 -17t111.5 -63q31 -20 53 -20q58 0 96 86l103 -37q-46 -92 -91 -132t-102 -40q-32 0 -67 15t-109 59q-43 26 -67 26q-59 0 -97 -84z" />
<glyph unicode="&#x2000;" horiz-adv-x="889" />
<glyph unicode="&#x2001;" horiz-adv-x="1778" />
<glyph unicode="&#x2002;" horiz-adv-x="889" />
<glyph unicode="&#x2003;" horiz-adv-x="1778" />
<glyph unicode="&#x2004;" horiz-adv-x="592" />
<glyph unicode="&#x2005;" horiz-adv-x="444" />
<glyph unicode="&#x2006;" horiz-adv-x="296" />
<glyph unicode="&#x2007;" horiz-adv-x="296" />
<glyph unicode="&#x2008;" horiz-adv-x="222" />
<glyph unicode="&#x2009;" horiz-adv-x="355" />
<glyph unicode="&#x200a;" horiz-adv-x="98" />
<glyph unicode="&#x2010;" horiz-adv-x="423" d="M0 426v141h424v-141h-424z" />
<glyph unicode="&#x2011;" horiz-adv-x="423" d="M0 426v141h424v-141h-424z" />
<glyph unicode="&#x2012;" horiz-adv-x="423" d="M0 426v141h424v-141h-424z" />
<glyph unicode="&#x2013;" d="M145 424v137h736v-137h-736z" />
<glyph unicode="&#x2014;" horiz-adv-x="1273" d="M0 430v131h1274v-131h-1274z" />
<glyph unicode="&#x2018;" horiz-adv-x="452" d="M80 977l186 416l115 -39l-166 -428z" />
<glyph unicode="&#x2019;" horiz-adv-x="452" d="M74 965l166 428l135 -50l-189 -417z" />
<glyph unicode="&#x201a;" horiz-adv-x="456" d="M74 -231l168 438l137 -51l-191 -428z" />
<glyph unicode="&#x201c;" horiz-adv-x="825" d="M80 913l205 480l114 -41l-178 -490zM438 913l205 480l115 -41l-178 -488z" />
<glyph unicode="&#x201d;" horiz-adv-x="825" d="M68 903l176 490l143 -50l-207 -481zM424 903l178 490l143 -50l-206 -481z" />
<glyph unicode="&#x201e;" horiz-adv-x="825" d="M68 -283l176 488l143 -47l-207 -482zM424 -283l178 490l143 -49l-206 -482z" />
<glyph unicode="&#x2022;" horiz-adv-x="1366" d="M401 692q0 120 83.5 202.5t205.5 82.5q114 0 196.5 -83.5t82.5 -199.5q0 -118 -83 -201t-200 -83t-201 82.5t-84 199.5z" />
<glyph unicode="&#x2026;" horiz-adv-x="1417" d="M129 90q0 46 30.5 76.5t76.5 30.5t76 -31t30 -78q0 -44 -31 -74t-75 -30q-46 0 -76.5 30t-30.5 76zM602 90q0 46 30.5 76.5t76.5 30.5t76 -31t30 -78q0 -44 -31 -74t-75 -30q-46 0 -76.5 30t-30.5 76zM1073 90q0 46 30.5 76.5t76.5 30.5t76 -31t30 -78q0 -44 -31 -74 t-75 -30q-46 0 -76.5 30t-30.5 76z" />
<glyph unicode="&#x202f;" horiz-adv-x="355" />
<glyph unicode="&#x2039;" horiz-adv-x="520" d="M88 481l207 350h123l-209 -350l209 -336h-123z" />
<glyph unicode="&#x203a;" horiz-adv-x="520" d="M102 145l207 351l-207 335h123l207 -335l-207 -351h-123z" />
<glyph unicode="&#x205f;" horiz-adv-x="444" />
<glyph unicode="&#x20ac;" d="M14 471l60 141h53q-2 29 -2 74q0 31 2 49h-113l60 142h67q19 86 39 143q55 164 183 267.5t274 103.5q98 0 194 -48.5t170 -134.5l-73 -170q-54 92 -130.5 142.5t-162.5 50.5q-109 0 -194 -95t-122 -259h529l-60 -142h-485q-2 -14 -2 -39q0 -18 4 -84h443l-60 -141h-360 q32 -149 119 -242.5t192 -93.5q87 0 164.5 49.5t130.5 137.5v-226q-60 -55 -141.5 -88t-157.5 -33q-172 0 -308 138t-182 358h-131z" />
<glyph unicode="&#x2122;" horiz-adv-x="1695" d="M25 1266v100h553v-100h-216v-719h-122v719h-215zM721 547v819h119l309 -594l309 594h119v-819h-123v563l-305 -582l-305 582v-563h-123z" />
<glyph unicode="&#x25fc;" horiz-adv-x="942" d="M0 0v942h942v-942h-942z" />
</font>
</defs>
</svg>
